<?xml version="1.0" encoding="UTF-8"?>
<!DOCTYPE svg PUBLIC "-//W3C//DTD SVG 1.1//EN" "http://www.w3.org/Graphics/SVG/1.1/DTD/svg11.dtd">
<!-- Creator: CorelDRAW X7 -->
<svg xmlns="http://www.w3.org/2000/svg" xml:space="preserve" width="26.3656mm" height="26.3656mm" version="1.1" style="shape-rendering:geometricPrecision; text-rendering:geometricPrecision; image-rendering:optimizeQuality; fill-rule:evenodd; clip-rule:evenodd"
viewBox="0 0 120 120"
 xmlns:xlink="http://www.w3.org/1999/xlink">
 <defs>
  <style type="text/css">
   <![CDATA[
    .fil8 {fill:none}
    .fil0 {fill:#D9DADA}
    .fil1 {fill:#FEFEFE;fill-rule:nonzero}
    .fil6 {fill:#FBCD94;fill-rule:nonzero}
    .fil7 {fill:#F0BB74;fill-rule:nonzero}
    .fil5 {fill:#E1AC65;fill-rule:nonzero}
    .fil3 {fill:#DBEFF7;fill-rule:nonzero}
    .fil4 {fill:#6AB6CF;fill-rule:nonzero}
    .fil2 {fill:#00779E;fill-rule:nonzero}
   ]]>
  </style>
   <clipPath id="id0">
    <path d="M60 0c33,0 60,27 60,60 0,33 -27,60 -60,60 -33,0 -60,-27 -60,-60 0,-33 27,-60 60,-60z"/>
   </clipPath>
 </defs>
 <g id="Layer_x0020_1">
  <metadata id="CorelCorpID_0Corel-Layer"/>
  <path class="fil0" d="M60 0c33,0 60,27 60,60 0,33 -27,60 -60,60 -33,0 -60,-27 -60,-60 0,-33 27,-60 60,-60z"/>
  <g style="clip-path:url(#id0)">
   <g id="_1498884863680">
    <g>
     <path id="1" class="fil1" d="M34 72c0,0 -1,0 -2,0 -1,0 -2,1 -2,1l0 -1c0,0 1,0 2,-1 1,0 2,0 2,0l0 1z"/>
     <path class="fil1" d="M41 71c0,0 -1,0 -1,0 -1,0 -2,0 -2,0l0 0c0,0 1,0 2,-1 0,0 1,0 1,0l0 1z"/>
     <path class="fil1" d="M49 71c0,0 -1,0 -2,0 -1,0 -1,0 -1,0l0 -1c0,0 0,0 1,0 1,0 2,0 2,0l0 1z"/>
     <path class="fil1" d="M56 72c0,0 0,0 -1,0 -1,0 -2,0 -2,0l0 -1c0,0 1,0 2,0 1,0 2,0 2,0l-1 1z"/>
     <path class="fil1" d="M64 74c0,0 0,0 -1,0 0,0 0,0 -1,-1 -1,0 -1,0 -1,0l0 -1c0,0 1,0 1,1 1,0 1,0 2,0 0,0 0,0 0,0l0 1z"/>
     <path class="fil1" d="M65 67c0,0 0,0 1,1 0,0 1,1 1,1l-1 1c0,0 0,-1 -1,-2 0,0 -1,-1 -1,-1l1 0z"/>
     <path class="fil1" d="M60 61c0,0 1,1 1,1 1,1 1,2 1,2l0 0c0,0 -1,0 -1,-1 -1,-1 -1,-1 -1,-1l0 -1z"/>
     <path class="fil1" d="M56 55c0,0 1,1 1,2 0,0 0,0 1,1 0,0 0,0 0,0l-1 0c0,0 0,0 0,0 0,0 -1,-1 -1,-1 0,-1 -1,-1 -1,-1l1 -1z"/>
     <path class="fil1" d="M53 49c0,0 0,1 1,1 0,1 0,2 0,2l0 0c0,0 -1,-1 -1,-1 -1,-1 -1,-2 -1,-2l1 0z"/>
     <path class="fil1" d="M51 42c0,0 0,0 0,0 0,1 0,1 0,2 0,0 1,1 1,1l-1 0c0,0 0,0 -1,-1 0,-1 0,-1 0,-1 0,-1 0,-1 0,-1l1 0z"/>
     <path class="fil1" d="M78 83c0,0 0,0 -1,-1 0,-1 0,-2 0,-2l1 0c0,0 0,1 0,2 0,0 1,1 1,1l-1 0z"/>
     <path class="fil1" d="M106 55c0,0 0,1 0,1 -1,0 -1,1 -1,1 0,1 0,2 0,2l-1 -1c0,0 0,-1 0,-1 1,-1 1,-1 1,-1 0,-1 0,-1 0,-1l1 0z"/>
     <path class="fil1" d="M109 49c0,0 0,0 0,0 -1,0 -1,1 -1,1 0,1 -1,2 -1,2l0 -1c0,0 0,-1 0,-1 0,-1 1,-1 1,-1 0,-1 0,-1 0,-1l1 1z"/>
     <path class="fil1" d="M113 42c0,0 0,0 -1,1 0,0 0,0 0,1 0,0 -1,0 -1,1 0,0 0,0 0,0l-1 0c0,0 0,-1 0,-1 1,0 1,0 1,-1 0,0 1,-1 1,-1 0,0 0,0 0,0l1 0z"/>
     <polygon class="fil1" points="94,46 92,43 93,42 95,45 "/>
     <path class="fil1" d="M98 52c0,0 0,-1 -1,-2 0,0 -1,-1 -1,-1l1 -1c0,0 1,1 1,2 1,0 1,1 1,1l-1 1z"/>
     <path class="fil1" d="M104 47c0,0 0,0 0,1 0,1 0,2 0,2l-1 0c0,0 0,-1 0,-2 1,-1 1,-1 1,-1l0 0z"/>
     <path class="fil2" d="M79 79c0,1 -1,2 -2,2 -1,0 -2,-1 -2,-2 0,-2 1,-2 2,-2 1,0 2,0 2,2z"/>
     <path class="fil2" d="M105 60c0,1 0,2 -2,2 -1,0 -2,-1 -2,-2 0,-1 1,-2 2,-2 2,0 2,1 2,2z"/>
     <path class="fil3" d="M30 73l0 -1c0,0 1,0 2,-1 0,0 0,0 0,0 1,0 2,0 2,0l0 1c0,0 -1,0 -1,0 -1,0 -1,0 -1,0 -1,0 -2,1 -2,1z"/>
     <path class="fil3" d="M38 71l0 0c0,0 1,0 2,-1 0,0 1,0 1,0l0 1c0,0 -1,0 -1,0 -1,0 -2,0 -2,0z"/>
     <path class="fil3" d="M49 71c0,0 -1,0 -2,0 -1,0 -1,0 -1,0l0 -1c0,0 0,0 1,0 1,0 2,0 2,0l0 1z"/>
     <path class="fil3" d="M56 72c0,0 0,0 -1,0 -1,0 -2,0 -2,0l0 -1c0,0 1,0 2,0 1,0 2,0 2,0l-1 1z"/>
     <path class="fil3" d="M64 74c0,0 0,0 -1,0 0,0 0,0 -1,-1 -1,0 -1,0 -1,0l0 -1c0,0 1,0 1,1 1,0 1,0 2,0 0,0 0,0 0,0l0 1z"/>
     <path class="fil3" d="M66 70c0,0 0,-1 -1,-2 0,0 -1,-1 -1,-1l1 0c0,0 0,0 1,1 0,0 1,1 1,1l-1 1z"/>
     <path class="fil3" d="M62 64c0,0 -1,0 -1,-1 -1,-1 -1,-1 -1,-1l0 -1c0,0 1,1 1,1 1,1 1,2 1,2l0 0z"/>
     <path class="fil3" d="M57 58c0,0 0,0 0,0 0,0 -1,-1 -1,-1 0,-1 -1,-1 -1,-1l1 -1c0,0 1,1 1,2 0,0 0,0 1,1 0,0 0,0 0,0l-1 0z"/>
     <path class="fil3" d="M54 52c0,0 -1,-1 -1,-1 -1,-1 -1,-2 -1,-2l1 0c0,0 0,1 1,1 0,1 0,2 0,2l0 0z"/>
     <path class="fil3" d="M51 45c0,0 0,0 -1,-1 0,-1 0,-1 0,-1 0,-1 0,-1 0,-1l1 0c0,0 0,0 0,0 0,1 0,1 0,2 0,0 1,1 1,1l-1 0z"/>
     <path class="fil3" d="M105 59l0 -1c-1,0 -1,0 -1,0 0,0 0,-1 0,-1 1,-1 1,-1 1,-1 0,-1 0,-1 0,-1l1 0c0,0 0,1 0,1 -1,0 -1,1 -1,1 0,1 0,2 0,2z"/>
     <path class="fil3" d="M107 52l0 -1c0,0 0,0 0,0 0,-1 0,-1 0,-1 0,-1 1,-1 1,-1 0,-1 0,-1 0,-1l1 1c0,0 0,0 0,0 -1,0 -1,1 -1,1 0,0 0,0 0,1 -1,0 -1,1 -1,1z"/>
     <path class="fil3" d="M111 45l-1 0c0,0 0,-1 0,-1 1,0 1,0 1,-1 0,0 1,-1 1,-1 0,0 0,0 0,0l1 0c0,0 0,0 -1,1 0,0 0,0 0,1 0,0 -1,0 -1,1 0,0 0,0 0,0z"/>
     <polygon class="fil3" points="94,46 92,43 93,42 95,45 "/>
     <path class="fil3" d="M98 52c0,0 0,-1 -1,-2 0,0 -1,-1 -1,-1l1 -1c0,0 1,1 1,2 1,0 1,1 1,1l-1 1z"/>
     <path class="fil3" d="M104 50l-1 0c0,0 0,-1 0,-2 0,0 1,-1 1,-1 0,0 0,0 0,0l0 0c0,0 0,0 0,1 0,0 0,0 0,0 0,1 0,2 0,2z"/>
     <path class="fil4" d="M77 81c-1,0 -2,-1 -2,-2 0,-2 1,-2 2,-2 1,0 2,0 2,2 0,0 -1,1 -1,1 0,0 -1,0 -1,0 0,1 0,1 0,1z"/>
     <path class="fil4" d="M103 62c-1,0 -2,-1 -2,-2 0,-1 1,-2 2,-2 1,0 1,0 1,0 0,0 0,0 1,0 0,1 0,1 0,2 0,1 0,2 -2,2z"/>
     <polygon class="fil5" points="97,66 59,88 34,68 71,44 86,40 "/>
     <polygon class="fil6" points="26,68 65,94 90,67 64,39 38,39 "/>
     <path class="fil6" d="M73 90c0,3 -2,5 -5,5 -2,0 -4,-2 -4,-5 0,-2 2,-4 4,-4 3,0 5,2 5,4z"/>
     <path class="fil6" d="M81 85c0,3 -3,6 -5,6 -3,0 -6,-3 -6,-6 0,-3 3,-5 6,-5 2,0 5,2 5,5z"/>
     <path class="fil6" d="M92 71c0,3 -2,5 -5,5 -3,0 -5,-2 -5,-5 0,-3 2,-5 5,-5 3,0 5,2 5,5z"/>
     <path class="fil6" d="M87 79c0,3 -2,5 -5,5 -3,0 -5,-2 -5,-5 0,-3 2,-5 5,-5 3,0 5,2 5,5z"/>
     <polygon class="fil1" points="25,71 15,67 29,33 39,37 "/>
     <path class="fil2" d="M16 74l-41 -16c0,-2 0,-3 0,-4 0,-16 4,-31 11,-43l48 18 -18 45z"/>
     <path class="fil5" d="M84 37l-19 -4 -13 7 -7 14c0,0 6,6 10,0 4,-5 4,-6 4,-6l5 -1c0,0 5,10 16,10 8,0 11,-5 11,-5l-7 -15z"/>
     <path class="fil5" d="M29 74c0,0 4,-6 6,-5 2,1 5,4 5,6 -1,2 -3,5 -5,5 -1,-1 -7,-4 -6,-6z"/>
     <path class="fil5" d="M36 79c0,0 8,-8 9,-9 2,0 8,2 6,6 -1,3 -6,8 -8,9 -3,0 -8,-3 -7,-6z"/>
     <path class="fil5" d="M45 83c0,0 0,0 0,0 0,1 0,2 2,4 4,3 12,-4 12,-7 1,-3 -3,-8 -7,-5l-7 8z"/>
     <path class="fil5" d="M52 87c0,0 0,0 0,0 0,1 -1,2 2,5 3,3 12,-3 13,-6 1,-2 -2,-8 -7,-5l-8 6z"/>
     <polygon class="fil1" points="97,70 107,66 93,32 83,36 "/>
     <path class="fil2" d="M106 73l45 -18c0,0 0,-1 0,-1l0 0c0,-17 -5,-32 -13,-45l-50 20 18 44z"/>
     <path class="fil7" d="M45 54c0,0 2,1 4,1 1,-1 3,-6 3,-6 0,-1 -3,-2 -3,-2l-4 7z"/>
     <path class="fil7" d="M31 73c0,0 3,4 4,4 2,-1 4,-3 2,-5 -1,-1 -2,-2 -3,-1 -1,0 -3,2 -3,2z"/>
     <path class="fil7" d="M43 74c0,0 2,5 4,4 2,-1 3,-3 2,-5 -1,-1 -2,-1 -3,-1 -1,0 -3,2 -3,2z"/>
     <path class="fil7" d="M51 78c0,0 3,5 4,4 2,-1 4,-3 2,-5 -1,-1 -2,-2 -3,-1 -1,0 -3,2 -3,2z"/>
     <path class="fil7" d="M59 85c0,0 2,4 4,3 2,-1 4,-3 2,-4 -1,-2 -2,-2 -3,-2 -1,1 -3,3 -3,3z"/>
    </g>
   </g>
  </g>
  <path class="fil8" d="M60 0c33,0 60,27 60,60 0,33 -27,60 -60,60 -33,0 -60,-27 -60,-60 0,-33 27,-60 60,-60z"/>
 </g>
</svg>
