<?xml version="1.0" encoding="UTF-8"?>
<!DOCTYPE svg PUBLIC "-//W3C//DTD SVG 1.1//EN" "http://www.w3.org/Graphics/SVG/1.1/DTD/svg11.dtd">
<!-- Creator: CorelDRAW X7 -->
<svg xmlns="http://www.w3.org/2000/svg" xml:space="preserve" width="7.9126mm" height="8.8071mm" version="1.1" style="shape-rendering:geometricPrecision; text-rendering:geometricPrecision; image-rendering:optimizeQuality; fill-rule:evenodd; clip-rule:evenodd"
viewBox="0 0 46 51"
 xmlns:xlink="http://www.w3.org/1999/xlink">
 <defs>
  <style type="text/css">
   <![CDATA[
    .fil0 {fill:#FEFEFE}
    .fil1 {fill:url(#id0)}
   ]]>
  </style>
  <linearGradient id="id0" gradientUnits="userSpaceOnUse" x1="42.3335" y1="24.877" x2="3.47727" y2="26.1131">
   <stop offset="0" style="stop-opacity:1; stop-color:#C80053"/>
   <stop offset="1" style="stop-opacity:1; stop-color:#920068"/>
  </linearGradient>
 </defs>
 <g id="Layer_x0020_1">
  <metadata id="CorelCorpID_0Corel-Layer"/>
  <g id="_2783296108288">
   <g>
    <g>
     <path class="fil0" d="M34 39c-1,0 -1,1 -1,1 0,1 0,1 1,1 0,0 1,0 1,-1 0,0 -1,-1 -1,-1z"/>
    </g>
   </g>
   <g>
    <g>
     <path class="fil1" d="M36 36l-4 -1 -2 -4c1,-1 2,-3 3,-6l0 -1 2 0c2,0 3,-1 3,-3l0 -6c0,-8 -7,-15 -15,-15 -8,0 -15,7 -15,15l0 6c0,2 1,3 2,3l0 1c0,2 1,3 3,3l1 0c0,1 1,2 1,3 1,0 1,0 1,0l-2 4 -5 1c-5,2 -9,8 -9,14 0,1 0,1 1,1l44 0c0,0 1,0 1,-1 0,-6 -4,-12 -10,-14zm0 -15c0,1 -1,1 -1,1l-2 0c1,-2 1,-4 1,-6 0,0 0,0 0,0l2 0 0 5zm-25 1c-1,0 -1,0 -1,-1l0 -5 2 0c0,0 0,0 0,0 0,0 0,0 0,0 0,0 0,0 0,0 0,2 0,4 0,6l-1 0 0 0zm2 4c-1,0 -1,0 -1,-1l0 -1 1 0 0 1c0,1 0,1 0,1l0 0zm-1 -12l-2 0c1,-7 6,-12 13,-12 7,0 12,5 13,12l-2 0c0,-6 -5,-10 -10,-10l-2 0c-5,0 -10,4 -10,10zm10 -8l2 0c4,0 8,4 8,8 0,0 0,1 0,1 0,0 0,0 0,0l-1 0c-4,-1 -7,-2 -9,-5 -1,0 -1,0 -1,0 -3,0 -5,1 -7,3 0,-4 4,-7 8,-7zm-7 20c0,-1 -1,-6 -1,-9l1 -2c2,-2 3,-3 6,-3 2,3 6,4 9,5l2 0c0,2 0,4 -1,6 0,0 0,0 0,0 0,1 0,1 0,2 -1,3 -3,6 -6,7 -1,0 -3,0 -4,0 -2,-1 -4,-2 -5,-4l2 0c1,1 2,2 3,2l2 0c2,0 3,-1 3,-3 0,-1 -1,-3 -3,-3l-2 0c-1,0 -3,1 -3,2l-3 0zm6 8c1,0 1,0 2,0 0,0 1,0 2,0l-2 2 -2 -2zm0 3l-3 4c-1,-2 -1,-4 -2,-5l1 -3 4 4zm7 -4l2 3c-1,1 -2,3 -2,5l-4 -4 4 -4zm-8 -6c0,0 0,-1 1,-1l2 0c0,0 1,1 1,1 0,1 -1,1 -1,1l-2 0c-1,0 -1,0 -1,-1zm-18 22c0,-5 4,-9 8,-11l4 -1c1,2 2,4 3,6 0,0 0,0 0,0 0,0 0,0 0,0 1,1 2,3 3,4l1 2 -19 0zm21 -1l-1 -2c0,0 0,0 0,0 -1,-1 -2,-2 -3,-3l4 -4 4 4c-1,1 -2,2 -3,3 0,0 0,0 -1,2zm2 1l1 -2c1,-1 2,-3 3,-4 0,0 0,0 0,0 0,0 0,0 0,0 1,-2 2,-4 2,-6l5 1c4,2 7,6 8,11l-19 0z"/>
    </g>
   </g>
   <g>
    <g>
     <path class="fil0" d="M41 45c-1,-1 -2,-3 -3,-3 0,-1 -1,-1 -1,0 -1,0 -1,1 0,1 1,1 1,2 2,3 0,0 1,1 1,0 1,0 1,-1 1,-1z"/>
    </g>
   </g>
   <g>
   </g>
   <g>
   </g>
   <g>
   </g>
   <g>
   </g>
   <g>
   </g>
   <g>
   </g>
   <g>
   </g>
   <g>
   </g>
   <g>
   </g>
   <g>
   </g>
   <g>
   </g>
   <g>
   </g>
   <g>
   </g>
   <g>
   </g>
   <g>
   </g>
  </g>
 </g>
</svg>
