<svg xmlns="http://www.w3.org/2000/svg" width="57.284" height="51.339" viewBox="0 0 57.284 51.339"><defs><style>.a{fill:#fa7a19;}.a,.b{fill-rule:evenodd;}.b{fill:#019443;}</style></defs><g transform="translate(0.272 -0.006)"><g transform="translate(-0.272 0.006)"><path class="a" d="M52.022,27.905C62.974,17.35,54.6-.986,39.485.154a15.056,15.056,0,0,0-6.442,1.883,15.333,15.333,0,0,0-2.478,1.635,13.763,13.763,0,0,1-2.329,1.933,15.448,15.448,0,0,0-6.194-4.41C7.522-4.7-7.147,12.543,3.21,26.369c.644.793,9.069,9.416,10.506,10.555.842-1.041.743-1.734,2.577-3.172a7.673,7.673,0,0,1,8.87-.3c1.14.743,2.23,2.329,3.221,2.726,1.734-2.428,7.879-7.532,10.456-10.307a7.594,7.594,0,0,1,7.483-2.626,9.075,9.075,0,0,1,3.469,1.685,8.67,8.67,0,0,1,1.982,2.676C51.923,27.856,51.874,27.806,52.022,27.905Z" transform="translate(0.272 -0.006)"/><path class="b" d="M375.732,583.736c3.518-3.469,6.442-6.1,9.861-9.663,1.586-1.734,9.019-8.276,9.614-9.812a3.083,3.083,0,0,0-4.757-3.518,21.973,21.973,0,0,0-2.428,2.379l-7.384,7.185c-1.288,1.239-3.964,4.262-4.906,4.757-1.734-1.288-3.419-3.667-5.2-5.1a3.073,3.073,0,0,0-4.856,3.469c.446,1.14,4.064,4.361,5.005,5.3Z" transform="translate(-347.323 -532.397)"/></g></g></svg>