<svg xmlns="http://www.w3.org/2000/svg" xmlns:xlink="http://www.w3.org/1999/xlink" width="55" height="42.155" viewBox="0 0 55 42.155"><defs><style>.a{fill:url(#a);}</style><linearGradient id="a" x1="0.5" x2="0.5" y2="1" gradientUnits="objectBoundingBox"><stop offset="0" stop-color="#d10050"/><stop offset="1" stop-color="#2c0090"/></linearGradient></defs><g transform="translate(0 -51.678)"><path class="a" d="M54.006,57.5l-4.826-4.826a3.427,3.427,0,0,0-4.826,0L21.077,75.984,10.645,65.516a3.284,3.284,0,0,0-2.413-.993,3.285,3.285,0,0,0-2.413.993L.994,70.342a3.427,3.427,0,0,0,0,4.826L13.838,88.013l4.826,4.826a3.427,3.427,0,0,0,4.826,0l4.826-4.826,25.69-25.69a3.427,3.427,0,0,0,0-4.826Z" transform="translate(0 0)"/></g></svg>