<svg xmlns="http://www.w3.org/2000/svg" xmlns:xlink="http://www.w3.org/1999/xlink" width="38.361" height="50.361" viewBox="0 0 38.361 50.361"><defs><style>.a{fill:url(#a);}</style><linearGradient id="a" x1="0.5" x2="0.5" y2="1" gradientUnits="objectBoundingBox"><stop offset="0" stop-color="#d10050"/><stop offset="1" stop-color="#2c0090"/></linearGradient></defs><g transform="translate(-61)"><path class="a" d="M332.475,19.728h9.464L331,8.789v9.464A1.476,1.476,0,0,0,332.475,19.728Z" transform="translate(-243.442 -7.924)"/><path class="a" d="M65.426,50.361H94.935a4.431,4.431,0,0,0,4.426-4.426V14.754H89.033a4.431,4.431,0,0,1-4.426-4.426V0H65.426A4.431,4.431,0,0,0,61,4.426V45.935A4.431,4.431,0,0,0,65.426,50.361Zm8.853-26.656H89.033a1.475,1.475,0,0,1,0,2.951H74.279a1.475,1.475,0,0,1,0-2.951Zm0,5.9H89.033a1.475,1.475,0,0,1,0,2.951H74.279a1.475,1.475,0,0,1,0-2.951Zm0,5.9H89.033a1.475,1.475,0,0,1,0,2.951H74.279a1.475,1.475,0,0,1,0-2.951Zm-5.9-11.8A1.475,1.475,0,1,1,66.9,25.181,1.475,1.475,0,0,1,68.377,23.705Zm0,5.9A1.475,1.475,0,1,1,66.9,31.082,1.475,1.475,0,0,1,68.377,29.607Zm0,5.9A1.475,1.475,0,1,1,66.9,36.984,1.475,1.475,0,0,1,68.377,35.509Z"/></g></svg>