<?xml version="1.0" encoding="UTF-8"?>
<!DOCTYPE svg PUBLIC "-//W3C//DTD SVG 1.1//EN" "http://www.w3.org/Graphics/SVG/1.1/DTD/svg11.dtd">
<!-- Creator: CorelDRAW 2018 (64-Bit Evaluation Version) -->
<svg xmlns="http://www.w3.org/2000/svg" xml:space="preserve" width="80.1739mm" height="9.21mm" version="1.1" style="shape-rendering:geometricPrecision; text-rendering:geometricPrecision; image-rendering:optimizeQuality; fill-rule:evenodd; clip-rule:evenodd"
viewBox="0 0 7028.59 807.41"
 xmlns:xlink="http://www.w3.org/1999/xlink">
 <defs>
  <style type="text/css">
   <![CDATA[
    .fil0 {fill:white;fill-rule:nonzero}
   ]]>
  </style>
 </defs>
 <g id="Layer_x0020_1">
  <metadata id="CorelCorpID_0Corel-Layer"/>
  <g id="_1629618692128">
   <path class="fil0" d="M3784.53 207.99c-18.38,-1.15 -32.58,-17.88 -31.69,-37.36 0.89,-19.49 16.51,-34.34 34.9,-33.2 0.41,0.04 150.68,8.07 233.29,117.73 82.24,109.22 61.86,245.84 61.81,246.28 -2.42,19.36 -19.21,32.82 -37.5,30.04 -18.29,-2.77 -31.16,-20.72 -28.75,-40.09 0.04,-0.35 16.46,-107.71 -47.46,-192.6 -63.58,-84.41 -184.27,-90.78 -184.59,-90.81zm-806.35 485.09l-50.57 0 -83.95 0c-26.09,0 -48.49,-9.24 -67.22,-27.73 -18.73,-18.48 -28.09,-40.59 -28.09,-66.34l0 -118.33c0,-25.74 9.36,-47.86 28.09,-66.34 18.73,-18.49 41.12,-27.71 67.22,-27.71l83.95 0 23.07 0 27.5 0 26.96 0c20.31,0 31.4,4.83 29.62,23.89l0 22.68c2.06,15.4 -5.74,25.13 -31.98,24.23l-75.17 0 0 -0.02 -60.38 0c-35.36,0 -47.14,19.37 -47.14,50.61l0 63.07c0,33.65 20.3,51.18 51.27,51.18l56.26 0 50.57 0 26.96 0c20.31,0 31.4,4.85 29.62,23.9l0 22.69c2.06,15.39 -5.74,25.12 -31.98,24.22l-24.6 0zm-1453.04 0.03l25.65 0c14.44,0 23.78,-16.36 17.95,-27.52l-124.07 -237.32c-29.07,-55.29 -106.26,-55.27 -135.33,0l-124.07 237.32c-5.83,11.17 3.52,27.53 17.96,27.53l25.65 0c18.99,-0.15 25.68,-5.19 33.23,-20 35.19,-66.25 56.3,-117.17 91.51,-183.42 13.04,-24.07 33.73,-24.08 46.77,0 35.21,66.25 56.33,117.16 91.51,183.42 7.55,14.81 14.24,19.85 33.23,19.99zm-691.05 -306.46l206.91 0c26.41,0 49,9.24 67.72,27.72 18.72,18.48 28.08,40.61 28.08,66.34 0,10.57 -1.33,20.07 -4.01,28.47 -2.67,8.42 -4.77,14.11 -6.27,17.08 -1.51,2.97 -3.94,6.93 -7.28,11.88 15.39,17.26 23.07,37.56 23.07,61.07l0 31.53 0 15.67 0 32.8c-0.18,9.65 -5.64,14.54 -16.86,14.39l-42.14 0c-9.57,0.24 -13.07,-4.58 -12.73,-12.79l0 -34.41 0 0 0 -47.28c0,-5.61 -2.01,-10.72 -6.02,-15.44 -4.02,-4.61 -8.86,-7.42 -14.54,-8.42l-146.01 0c-17.23,-0.76 -24.61,9.94 -24.54,29.33l0 74.6c-0.18,9.65 -5.64,14.54 -16.87,14.39l-42.14 0c-9.56,0.24 -13.07,-4.58 -12.73,-12.79l0 -108.93c0,-43.66 6.21,-67.34 62.77,-67.81 69.94,-0.59 102.78,0.39 172.99,0.39 6.7,0 12.37,-2.3 17.05,-6.91 4.68,-4.64 7.02,-10.24 7.02,-16.85 0,-6.27 -2.34,-11.71 -7.02,-16.33 -4.68,-4.63 -10.35,-6.93 -17.05,-6.93l-207.05 0c-21.38,0.02 -28.01,-7.3 -28.71,-23.68l0 -23.1c1.36,-14.56 10.01,-24.02 26.34,-24.02zm767.71 277.23l0 -183.17c0,-25.73 9.37,-47.86 28.1,-66.34 18.73,-18.48 41.12,-27.72 67.22,-27.72l139.26 0c26.09,0 48.49,9.24 67.21,27.72 18.73,18.48 28.1,40.61 28.1,66.34l0 183.17c0,20.05 -4.91,30.98 -24.21,29.23l-22.99 0c-15.6,2.03 -25.45,-5.66 -24.55,-31.56l0 -163.97c0,-31.63 -9.04,-40.13 -45.96,-40.13l-94.47 0c-36.92,0 -45.96,8.49 -45.96,40.13l0 163.97c0.9,25.9 -8.94,33.59 -24.56,31.56l-22.98 0c-19.3,1.75 -24.21,-9.18 -24.21,-29.23zm588.52 29.23l-50.58 0 -83.96 0c-26.09,0 -48.49,-9.24 -67.21,-27.73 -18.73,-18.47 -28.09,-40.58 -28.09,-66.34l0 -118.33c0,-25.73 9.36,-47.86 28.09,-66.34 18.73,-18.48 41.12,-27.72 67.21,-27.72l83.96 0 23.07 0 27.52 0 26.95 0c20.32,0 31.39,4.85 29.62,23.9l0 22.69c2.06,15.4 -5.75,25.12 -31.98,24.22l-75.17 0 0 -0.01 -60.38 0c-35.36,0 -47.15,19.36 -47.15,50.6l0 63.07c0,33.65 20.3,51.19 51.28,51.19l56.26 0 50.58 0 26.95 0c20.32,0 31.39,4.84 29.62,23.89l0 22.69c2.06,15.39 -5.75,25.13 -31.98,24.22l-24.59 0zm80.57 -274.89c-0.9,-25.89 8.94,-33.59 24.55,-31.57l22.99 0c19.3,-1.74 24.21,9.19 24.21,29.25 0,73.74 0.03,147.57 0,221.38l0 26.61c0,20.05 -4.91,30.98 -24.21,29.23l-22.99 0c-15.6,2.03 -25.45,-5.66 -24.55,-31.56 0,-81.14 0,-162.17 0,-243.33zm190.18 157.06c-26.07,0 -48.49,-9.23 -67.21,-27.72 -18.73,-18.49 -28.1,-40.76 -28.1,-66.85 0,-25.73 9.37,-47.86 28.1,-66.34 18.73,-18.48 41.14,-27.72 67.21,-27.72 77.94,0 155.43,-0.22 233.22,-0.22 20.32,0 31.4,4.85 29.63,23.9l0 22.69c-0.16,16.63 -5.75,25.12 -31.99,24.22l-24.59 0.21 -206.27 0c-6.69,0 -12.29,2.22 -16.81,6.69 -4.51,4.44 -6.75,9.99 -6.75,16.57 0,6.61 2.33,12.21 7,16.85 4.7,4.61 10.21,6.91 16.56,6.91l165.53 0c26.42,0 49,9.34 67.72,27.98 18.73,18.66 28.1,41.02 28.1,67.09 0,25.74 -9.36,47.86 -28.1,66.34 -18.64,18.49 -41.22,27.73 -67.55,27.73 -75.74,0 -151.84,-0.5 -226.96,-0.5 -26.24,0.9 -31.83,-7.58 -31.98,-24.22l0 -22.69c-1.78,-19.05 9.3,-23.89 29.62,-23.89l229.23 0c6.61,0 12.29,-2.31 16.96,-6.93 4.7,-4.62 7.03,-10.07 7.03,-16.34 0,-6.61 -2.33,-12.21 -7.03,-16.82 -4.67,-4.63 -10.35,-6.94 -17.05,-6.94l-165.53 0zm1033.82 88.6l0 -183.17c0,-25.73 9.37,-47.86 28.1,-66.34 18.73,-18.48 41.12,-27.72 67.21,-27.72l139.26 0c26.1,0 48.49,9.24 67.21,27.72 18.73,18.48 28.1,40.61 28.1,66.34l0 183.17c0,20.05 -4.9,30.98 -24.2,29.23l-22.99 0c-15.6,2.03 -25.45,-5.66 -24.55,-31.56l0 -163.97c0,-31.63 -9.05,-40.13 -45.96,-40.13l-94.47 0c-36.93,0 -45.96,8.49 -45.96,40.13l0 163.97c0.9,25.9 -8.95,33.59 -24.55,31.56l-22.99 0c-19.3,1.75 -24.21,-9.18 -24.21,-29.23zm-80.07 29.34l25.65 0c14.45,0 23.79,-16.36 17.95,-27.53l-124.06 -237.31c-29.07,-55.29 -106.27,-55.28 -135.34,0l-124.06 237.31c-5.83,11.17 3.51,27.54 17.95,27.54l25.66 0c18.99,-0.15 25.68,-5.19 33.23,-20 35.18,-66.26 56.3,-117.17 91.51,-183.42 13.04,-24.07 33.73,-24.09 46.77,0 35.21,66.25 56.32,117.16 91.51,183.41 7.54,14.81 14.24,19.85 33.23,20zm-2868.42 -25.98l-0.27 -306.08c-0.02,-25.78 9.48,-48.02 28.12,-66.44 18.66,-18.4 41.18,-27.77 67.3,-27.75l3107.8 0.1c72.54,0 138.3,16.45 177.58,82.92 32.96,57.08 26.34,114.49 22.07,141.48 -10.97,69.27 -75.97,36.29 -66.83,-7.5 9.81,-111.59 -52.96,-147.16 -131.35,-145.54l-3081.53 -0.56c-29.25,-0.05 -51.4,23.63 -51.34,51.64 0.07,34.02 0.14,41.31 0.21,75.34 0,32.75 9.1,40.17 39.41,39.76l83.39 0c14.31,0.92 24.56,6.87 24.12,26.24l-0.07 21.09c0.15,13.71 -6,23.56 -26.23,23.56 -52.12,0 -45.3,0 -97.42,0 -14.16,0.2 -22.67,9 -23.11,30.05l0 60.83c-0.55,21.38 -10.43,27.41 -24.35,27.09 -7.66,0 -15.33,0 -22.99,0 -13.9,0.89 -24.49,-4.6 -24.5,-26.21zm3239.93 -596.65c-18.41,0.02 -33.65,-15.77 -34.02,-35.25 -0.38,-19.5 14.25,-35.31 32.66,-35.33 0.53,0 187.55,-0.98 321.62,152.38 134.84,154.22 109.94,350.28 109.88,350.85 -2.33,19.31 -19.08,32.66 -37.38,29.81 -18.3,-2.85 -31.24,-20.83 -28.9,-40.15 0.06,-0.47 20.82,-163.94 -92.1,-293.11 -113.68,-130.03 -271.29,-129.19 -271.75,-129.2z"/>
   <path class="fil0" d="M351.92 673.91c1.64,4.61 2.61,8.37 2.72,11.16 0.11,2.88 -0.75,5.04 -2.39,6.43 -1.74,1.5 -4.56,2.46 -8.48,2.88 -3.9,0.43 -9.12,0.65 -15.75,0.65 -6.51,0 -11.84,-0.22 -15.75,-0.53 -3.9,-0.32 -6.84,-0.86 -8.9,-1.5 -2.06,-0.75 -3.47,-1.82 -4.46,-3 -0.98,-1.3 -1.85,-2.9 -2.71,-4.73l-35.32 -98.97 -171.21 0 -33.78 97.69c-0.66,1.92 -1.53,3.52 -2.52,4.81 -1.08,1.4 -2.6,2.59 -4.66,3.55 -1.95,0.85 -4.89,1.6 -8.57,2.03 -3.71,0.43 -8.48,0.65 -14.46,0.65 -6.19,0 -11.2,-0.32 -15.1,-0.86 -3.92,-0.53 -6.74,-1.5 -8.26,-3 -1.63,-1.39 -2.4,-3.54 -2.3,-6.43 0.11,-2.78 0.99,-6.54 2.73,-11.16l138.08 -377.54c0.87,-2.37 1.95,-4.19 3.37,-5.69 1.41,-1.5 3.38,-2.58 6.08,-3.44 2.6,-0.86 5.98,-1.39 10.21,-1.71 4.13,-0.32 9.35,-0.53 15.74,-0.53 6.74,0 12.4,0.21 16.86,0.53 4.44,0.32 8.04,0.85 10.75,1.71 2.81,0.86 4.89,2.05 6.41,3.66 1.52,1.5 2.6,3.42 3.47,5.79l138.2 377.54zm-177.31 -333.27l-0.32 0 -70.94 202.66 143.19 0 -71.93 -202.66zm4452.74 330.16c0,3.76 -0.21,7.07 -0.65,9.86 -0.32,2.9 -1.09,5.25 -2.17,7.07 -1.09,1.94 -2.3,3.23 -3.7,4.09 -1.31,0.85 -2.93,1.28 -4.56,1.28l-197.73 0c-4.89,0 -9.45,-1.6 -13.8,-4.83 -4.36,-3.31 -6.52,-9 -6.52,-17.16l0 -362.54c0,-8.15 2.17,-13.83 6.52,-17.16 4.35,-3.21 8.91,-4.83 13.8,-4.83l195.44 0c1.74,0 3.26,0.43 4.67,1.29 1.31,0.87 2.5,2.16 3.25,4.08 0.87,1.82 1.64,4.19 2.18,7.08 0.44,2.78 0.76,6.33 0.76,10.5 0,3.76 -0.32,7.07 -0.76,9.87 -0.54,2.89 -1.32,5.14 -2.18,6.97 -0.75,1.72 -1.95,3 -3.25,3.86 -1.41,0.86 -2.93,1.28 -4.67,1.28l-161.01 0 0 127.5 138.08 0c1.74,0 3.27,0.53 4.67,1.5 1.31,0.85 2.5,2.26 3.47,3.87 0.97,1.71 1.64,3.95 2.08,6.97 0.43,2.89 0.65,6.33 0.65,10.29 0,3.76 -0.22,7.07 -0.65,9.75 -0.44,2.8 -1.1,4.94 -2.08,6.65 -0.97,1.6 -2.17,2.9 -3.47,3.54 -1.4,0.75 -2.93,1.18 -4.67,1.18l-138.08 0 0 145.4 163.3 0c1.63,0 3.25,0.43 4.56,1.28 1.4,0.86 2.61,2.16 3.7,3.87 1.08,1.81 1.84,4.06 2.17,6.97 0.44,2.78 0.65,6.33 0.65,10.5zm329.86 14.47c0,1.6 -0.45,3.1 -1.32,4.19 -0.87,1.17 -2.17,2.14 -4.12,3 -1.95,0.85 -4.57,1.5 -7.93,1.92 -3.49,0.43 -7.71,0.65 -12.72,0.65 -5.33,0 -9.67,-0.22 -13.15,-0.65 -3.36,-0.42 -5.96,-1.07 -7.93,-1.92 -1.84,-0.86 -3.25,-1.82 -4.12,-3 -0.87,-1.09 -1.3,-2.59 -1.3,-4.19l0 -165.56c0,-16.19 -1.19,-29.18 -3.81,-38.92 -2.49,-9.86 -6.19,-18.33 -11.07,-25.52 -4.89,-7.07 -11.2,-12.55 -19.02,-16.31 -7.71,-3.74 -16.61,-5.67 -26.83,-5.67 -13.15,0 -26.3,4.6 -39.43,13.83 -13.26,9.22 -27.06,22.73 -41.41,40.53l0 197.62c0,1.6 -0.43,3.1 -1.3,4.19 -0.87,1.17 -2.28,2.14 -4.14,3 -1.95,0.85 -4.55,1.5 -7.93,1.92 -3.47,0.43 -7.83,0.65 -13.14,0.65 -5,0 -9.23,-0.22 -12.71,-0.65 -3.37,-0.42 -6.09,-1.07 -8.04,-1.92 -2.06,-0.86 -3.47,-1.82 -4.12,-3 -0.77,-1.09 -1.21,-2.59 -1.21,-4.19l0 -282.75c0,-1.73 0.32,-3.12 0.97,-4.3 0.67,-1.07 1.97,-2.15 3.81,-3.1 1.95,-0.96 4.35,-1.52 7.39,-1.84 2.93,-0.32 6.85,-0.53 11.72,-0.53 4.68,0 8.6,0.22 11.63,0.53 3.03,0.32 5.44,0.88 7.17,1.84 1.63,0.96 2.93,2.03 3.69,3.1 0.65,1.17 1.1,2.57 1.1,4.3l0 37.42c16.08,-17.81 32.16,-30.89 48.23,-39.14 15.96,-8.26 32.16,-12.43 48.44,-12.43 19.13,0 35.21,3.21 48.23,9.64 13.04,6.33 23.71,14.9 31.74,25.52 8.03,10.73 13.78,23.27 17.26,37.53 3.59,14.37 5.33,31.64 5.33,51.68l0 172.54zm238.58 -20.8c0,6.11 -0.43,10.94 -1.19,14.47 -0.88,3.55 -2.18,6.22 -3.92,7.83 -1.62,1.71 -4.23,3.33 -7.6,4.73 -3.37,1.5 -7.29,2.67 -11.62,3.64 -4.36,0.96 -8.92,1.71 -13.8,2.37 -4.9,0.64 -9.77,0.96 -14.68,0.96 -14.89,0 -27.6,-1.94 -38.24,-5.79 -10.53,-3.97 -19.23,-9.75 -26.08,-17.58 -6.72,-7.93 -11.73,-17.81 -14.76,-29.92 -3.05,-12.02 -4.57,-26.17 -4.57,-42.57l0 -165.24 -40.2 0c-3.16,0 -5.65,-1.6 -7.61,-5.03 -1.96,-3.33 -2.83,-8.8 -2.83,-16.31 0,-3.95 0.22,-7.29 0.76,-10.07 0.55,-2.67 1.21,-4.94 2.07,-6.76 0.87,-1.71 1.95,-2.99 3.37,-3.74 1.41,-0.75 2.95,-1.07 4.57,-1.07l39.87 0 0 -67.23c0,-1.52 0.32,-2.8 1.09,-4.09 0.75,-1.28 2.05,-2.35 4.13,-3.31 1.95,-0.96 4.66,-1.62 8.15,-2.05 3.36,-0.43 7.6,-0.64 12.69,-0.64 5.33,0 9.69,0.21 13.04,0.64 3.38,0.43 6.08,1.09 7.93,2.05 1.95,0.96 3.26,2.03 4.13,3.31 0.87,1.29 1.31,2.57 1.31,4.09l0 67.23 73.54 0c1.64,0 3.16,0.32 4.45,1.07 1.19,0.75 2.39,2.03 3.25,3.74 1,1.82 1.75,4.09 2.08,6.76 0.44,2.79 0.65,6.12 0.65,10.07 0,7.51 -0.87,12.98 -2.83,16.31 -1.95,3.43 -4.44,5.03 -7.6,5.03l-73.54 0 0 157.73c0,19.52 2.93,34.22 8.69,44.18 5.87,9.86 16.3,14.9 31.39,14.9 4.9,0 9.23,-0.53 13.04,-1.39 3.8,-0.96 7.28,-2.05 10.2,-3.02 2.93,-1.07 5.55,-2.03 7.61,-3 2.17,-0.96 4.02,-1.39 5.76,-1.39 1.09,0 2.06,0.21 3.03,0.75 0.98,0.53 1.63,1.5 2.17,3 0.55,1.5 1.1,3.44 1.42,5.9 0.44,2.57 0.65,5.69 0.65,9.43zm306.9 -132.85c0,8.15 -2.06,14.05 -6.2,17.47 -4.12,3.43 -8.79,5.15 -14.11,5.15l-187.85 0c0,15.76 1.62,29.81 4.79,42.46 3.14,12.55 8.47,23.27 15.96,32.28 7.39,9.01 17.06,15.98 28.9,20.79 11.94,4.83 26.4,7.19 43.67,7.19 13.58,0 25.65,-1.07 36.29,-3.32 10.54,-2.14 19.79,-4.61 27.5,-7.4 7.71,-2.69 14.11,-5.15 19.11,-7.29 5,-2.24 8.69,-3.33 11.31,-3.33 1.4,0 2.81,0.32 3.9,1.09 1.19,0.75 2.06,1.82 2.71,3.31 0.65,1.5 1.21,3.53 1.53,6.12 0.22,2.57 0.43,5.79 0.43,9.54 0,2.79 -0.11,5.15 -0.32,7.08 -0.21,2.03 -0.43,3.74 -0.75,5.37 -0.34,1.6 -0.89,2.99 -1.65,4.28 -0.75,1.17 -1.73,2.47 -2.81,3.54 -1.19,1.18 -4.68,3.1 -10.42,5.67 -5.65,2.59 -13.15,5.15 -22.28,7.74 -9.13,2.46 -19.67,4.71 -31.61,6.74 -11.96,1.94 -24.78,3.01 -38.35,3.01 -23.58,0 -44.22,-3.33 -61.94,-9.75 -17.7,-6.55 -32.59,-16.21 -44.75,-28.96 -12.07,-12.76 -21.19,-28.74 -27.39,-48.05 -6.08,-19.3 -9.23,-41.7 -9.23,-67.23 0,-24.23 3.25,-46.1 9.56,-65.5 6.42,-19.31 15.53,-35.82 27.61,-49.34 11.94,-13.51 26.39,-23.8 43.44,-31.1 16.96,-7.18 35.97,-10.82 56.94,-10.82 22.5,0 41.61,3.53 57.47,10.71 15.75,7.08 28.8,16.73 39,28.75 10.22,12.01 17.61,26.15 22.38,42.36 4.79,16.3 7.17,33.55 7.17,51.99l0 9.45zm-52.8 -15.33c0.65,-27.24 -5.42,-48.69 -18.36,-64.13 -12.83,-15.55 -31.83,-23.27 -57.03,-23.27 -13.04,0 -24.35,2.45 -34.12,7.29 -9.77,4.73 -17.93,11.16 -24.44,19.09 -6.64,7.94 -11.75,17.26 -15.32,27.76 -3.59,10.63 -5.65,21.66 -6.08,33.25l155.35 0zm300.07 -95.22c0,4.61 -0.11,8.47 -0.32,11.59 -0.22,3.21 -0.65,5.67 -1.19,7.4 -0.65,1.81 -1.52,3.1 -2.38,4.07 -0.97,0.96 -2.29,1.39 -4.02,1.39 -1.74,0 -3.8,-0.43 -6.2,-1.39 -2.5,-0.96 -5.21,-1.82 -8.26,-2.79 -3.14,-0.96 -6.52,-1.83 -10.31,-2.69 -3.92,-0.85 -8.04,-1.28 -12.5,-1.28 -5.31,0 -10.42,1.07 -15.53,3.23 -5.1,2.03 -10.54,5.45 -16.08,10.28 -5.65,4.83 -11.51,11.26 -17.71,19.21 -6.08,7.93 -12.93,17.68 -20.32,29.15l0 186.05c0,1.6 -0.43,3.1 -1.3,4.19 -0.87,1.17 -2.28,2.14 -4.14,3 -1.95,0.85 -4.55,1.5 -7.93,1.92 -3.46,0.43 -7.82,0.65 -13.13,0.65 -5.01,0 -9.23,-0.22 -12.71,-0.65 -3.37,-0.42 -6.09,-1.07 -8.04,-1.92 -2.06,-0.86 -3.47,-1.82 -4.12,-3 -0.78,-1.09 -1.21,-2.59 -1.21,-4.19l0 -282.75c0,-1.73 0.32,-3.12 0.97,-4.3 0.67,-1.07 1.97,-2.15 3.81,-3.1 1.95,-0.96 4.35,-1.52 7.39,-1.84 2.92,-0.32 6.84,-0.53 11.72,-0.53 4.68,0 8.6,0.22 11.63,0.53 3.03,0.32 5.44,0.88 7.17,1.84 1.62,0.96 2.93,2.03 3.68,3.1 0.66,1.17 1.1,2.57 1.1,4.3l0 41.17c7.82,-11.36 15.21,-20.59 22.04,-27.68 6.95,-7.07 13.47,-12.75 19.67,-16.83 6.08,-4.06 12.18,-6.86 18.24,-8.47 6.09,-1.5 12.18,-2.35 18.26,-2.35 2.82,0 5.98,0.21 9.45,0.53 3.47,0.32 7.17,0.86 10.97,1.71 3.81,0.86 7.28,1.71 10.33,2.79 3.15,1.08 5.31,2.15 6.52,3.11 1.31,1.07 2.17,2.03 2.6,3 0.43,0.96 0.76,2.14 1.09,3.66 0.32,1.5 0.54,3.64 0.65,6.43 0.11,2.78 0.11,6.64 0.11,11.47zm323.45 118.39c0,24.77 -2.73,46.96 -8.15,66.57 -5.32,19.73 -13.36,36.46 -23.78,50.19 -10.56,13.73 -23.59,24.23 -39.02,31.74 -15.53,7.4 -33.24,11.16 -53.22,11.16 -8.49,0 -16.31,-0.85 -23.48,-2.58 -7.27,-1.6 -14.33,-4.29 -21.17,-7.83 -6.96,-3.53 -13.81,-8.04 -20.54,-13.5 -6.85,-5.47 -14.02,-11.8 -21.63,-19.2l0 141.44c0,1.6 -0.43,3.1 -1.3,4.38 -0.87,1.19 -2.28,2.26 -4.14,3.12 -1.95,0.85 -4.55,1.5 -7.93,1.92 -3.47,0.32 -7.83,0.53 -13.14,0.53 -5,0 -9.23,-0.21 -12.71,-0.53 -3.37,-0.42 -6.09,-1.07 -8.04,-1.92 -2.06,-0.86 -3.47,-1.93 -4.12,-3.12 -0.78,-1.28 -1.21,-2.78 -1.21,-4.38l0 -394.92c0,-1.95 0.32,-3.45 0.97,-4.51 0.67,-1.17 1.97,-2.14 3.81,-3 1.95,-0.85 4.35,-1.4 7.39,-1.73 2.93,-0.32 6.51,-0.53 10.75,-0.53 4.46,0 8.14,0.22 10.98,0.53 2.93,0.32 5.32,0.88 7.18,1.73 1.95,0.86 3.25,1.82 4.01,3 0.76,1.07 1.09,2.57 1.09,4.51l0 38.06c8.71,-8.92 17.07,-16.53 25.21,-22.95 8.04,-6.54 16.08,-11.91 24.34,-16.2 8.14,-4.28 16.51,-7.62 25.09,-9.76 8.58,-2.24 17.71,-3.31 27.27,-3.31 20.74,0 38.46,3.95 53.13,12 14.65,7.93 26.5,18.77 35.73,32.6 9.23,13.83 15.96,29.92 20.21,48.25 4.34,18.33 6.42,37.74 6.42,58.23zm-55.42 6c0,-14.47 -1.09,-28.4 -3.25,-41.92 -2.28,-13.52 -6.08,-25.51 -11.51,-36.03 -5.44,-10.4 -12.71,-18.76 -21.84,-25.09 -9.13,-6.22 -20.43,-9.43 -34.01,-9.43 -6.85,0 -13.46,0.96 -20.08,3 -6.52,2.03 -13.26,5.15 -20,9.43 -6.85,4.3 -13.91,9.99 -21.41,16.95 -7.39,7.07 -15.21,15.66 -23.47,25.94l0 112.49c14.34,17.37 28.04,30.67 41.08,39.89 12.91,9.21 26.5,13.83 40.74,13.83 13.15,0 24.44,-3.23 33.88,-9.43 9.35,-6.33 17.07,-14.69 22.92,-25.21 5.76,-10.39 10.12,-22.2 12.83,-35.15 2.82,-12.98 4.12,-26.07 4.12,-39.26zm301.71 -124.38c0,4.61 -0.11,8.47 -0.32,11.59 -0.22,3.21 -0.66,5.67 -1.19,7.4 -0.66,1.81 -1.53,3.1 -2.39,4.07 -0.97,0.96 -2.29,1.39 -4.02,1.39 -1.74,0 -3.8,-0.43 -6.2,-1.39 -2.49,-0.96 -5.2,-1.82 -8.25,-2.79 -3.15,-0.96 -6.52,-1.83 -10.32,-2.69 -3.92,-0.85 -8.04,-1.28 -12.5,-1.28 -5.31,0 -10.42,1.07 -15.53,3.23 -5.09,2.03 -10.53,5.45 -16.08,10.28 -5.65,4.83 -11.51,11.26 -17.7,19.21 -6.09,7.93 -12.94,17.68 -20.32,29.15l0 186.05c0,1.6 -0.44,3.1 -1.31,4.19 -0.87,1.17 -2.28,2.14 -4.14,3 -1.95,0.85 -4.55,1.5 -7.93,1.92 -3.47,0.43 -7.82,0.65 -13.13,0.65 -5.01,0 -9.23,-0.22 -12.72,-0.65 -3.36,-0.42 -6.08,-1.07 -8.04,-1.92 -2.06,-0.86 -3.47,-1.82 -4.12,-3 -0.77,-1.09 -1.21,-2.59 -1.21,-4.19l0 -282.75c0,-1.73 0.32,-3.12 0.98,-4.3 0.67,-1.07 1.96,-2.15 3.8,-3.1 1.95,-0.96 4.36,-1.52 7.39,-1.84 2.93,-0.32 6.85,-0.53 11.72,-0.53 4.68,0 8.6,0.22 11.63,0.53 3.04,0.32 5.44,0.88 7.17,1.84 1.63,0.96 2.93,2.03 3.69,3.1 0.65,1.17 1.1,2.57 1.1,4.3l0 41.17c7.83,-11.36 15.21,-20.59 22.04,-27.68 6.96,-7.07 13.48,-12.75 19.67,-16.83 6.09,-4.06 12.18,-6.86 18.25,-8.47 6.08,-1.5 12.17,-2.35 18.26,-2.35 2.81,0 5.98,0.21 9.44,0.53 3.47,0.32 7.17,0.86 10.97,1.71 3.81,0.86 7.29,1.71 10.34,2.79 3.14,1.08 5.31,2.15 6.52,3.11 1.3,1.07 2.17,2.03 2.59,3 0.44,0.96 0.76,2.14 1.09,3.66 0.32,1.5 0.54,3.64 0.65,6.43 0.11,2.78 0.11,6.64 0.11,11.47zm112.45 264.21c0,1.6 -0.44,3.1 -1.31,4.19 -0.87,1.17 -2.27,2.14 -4.13,3 -1.95,0.85 -4.56,1.5 -7.93,1.92 -3.47,0.43 -7.82,0.65 -13.13,0.65 -5.01,0 -9.23,-0.22 -12.72,-0.65 -3.36,-0.42 -6.08,-1.07 -8.04,-1.92 -2.06,-0.86 -3.47,-1.82 -4.12,-3 -0.77,-1.09 -1.21,-2.59 -1.21,-4.19l0 -282.75c0,-1.52 0.44,-2.81 1.21,-4.09 0.65,-1.28 2.06,-2.36 4.12,-3.1 1.95,-0.86 4.68,-1.52 8.04,-1.94 3.49,-0.43 7.71,-0.65 12.72,-0.65 5.31,0 9.66,0.22 13.13,0.65 3.38,0.42 5.98,1.08 7.93,1.94 1.86,0.75 3.26,1.82 4.13,3.1 0.87,1.28 1.31,2.57 1.31,4.09l0 282.75zm5.98 -378.3c0,12.23 -2.28,20.48 -6.96,24.87 -4.67,4.4 -13.26,6.54 -25.74,6.54 -12.39,0 -20.76,-2.14 -25.33,-6.43 -4.55,-4.28 -6.83,-12.32 -6.83,-24.34 0,-12.12 2.28,-20.37 6.94,-24.77 4.67,-4.4 13.26,-6.65 25.76,-6.65 12.38,0 20.74,2.15 25.31,6.44 4.57,4.28 6.85,12.42 6.85,24.34zm270.96 301.31c0,14.48 -2.73,27.33 -8.14,38.6 -5.44,11.36 -13.15,20.92 -23.14,28.64 -9.9,7.71 -21.84,13.61 -35.64,17.58 -13.8,3.97 -28.9,6.01 -45.53,6.01 -10.1,0 -19.87,-0.85 -29.11,-2.37 -9.23,-1.6 -17.49,-3.64 -24.77,-6 -7.39,-2.37 -13.59,-4.94 -18.68,-7.5 -5.01,-2.69 -8.8,-5.04 -11.09,-7.07 -2.38,-2.16 -4.02,-5.05 -5.1,-8.79 -1.1,-3.76 -1.64,-8.91 -1.64,-15.44 0,-3.97 0.22,-7.29 0.65,-10.09 0.44,-2.67 0.99,-4.81 1.65,-6.54 0.65,-1.72 1.52,-2.89 2.71,-3.64 1.09,-0.75 2.49,-1.07 3.92,-1.07 2.38,0 5.86,1.39 10.42,4.28 4.55,2.8 10.1,5.9 16.83,9.23 6.64,3.31 14.56,6.42 23.69,9.22 9.13,2.88 19.67,4.28 31.51,4.28 8.9,0 16.94,-0.96 24.22,-2.79 7.17,-1.92 13.47,-4.72 18.8,-8.35 5.22,-3.66 9.34,-8.36 12.16,-13.95 2.94,-5.68 4.35,-12.44 4.35,-20.16 0,-7.93 -2.06,-14.69 -6.2,-20.04 -4.12,-5.47 -9.66,-10.3 -16.4,-14.47 -6.85,-4.19 -14.45,-7.93 -22.92,-11.16 -8.48,-3.22 -17.27,-6.65 -26.29,-10.19 -9.03,-3.65 -17.82,-7.61 -26.41,-12.12 -8.58,-4.49 -16.3,-9.97 -23.03,-16.51 -6.85,-6.54 -12.27,-14.26 -16.4,-23.27 -4.12,-9 -6.2,-19.73 -6.2,-32.38 0,-11.05 2.18,-21.66 6.52,-31.85 4.35,-10.2 10.87,-19.09 19.56,-26.7 8.69,-7.62 19.55,-13.73 32.59,-18.33 13.04,-4.62 28.36,-6.97 45.74,-6.97 7.6,0 15.21,0.64 22.92,1.93 7.6,1.17 14.45,2.78 20.65,4.72 6.18,1.82 11.4,3.86 15.75,6.1 4.33,2.16 7.6,4.09 9.88,5.79 2.17,1.71 3.68,3.12 4.44,4.4 0.77,1.29 1.32,2.67 1.64,4.29 0.32,1.51 0.54,3.44 0.87,5.79 0.32,2.25 0.54,5.15 0.54,8.48 0,3.54 -0.22,6.65 -0.54,9.21 -0.32,2.69 -0.75,4.83 -1.52,6.43 -0.75,1.73 -1.64,2.91 -2.73,3.66 -1.09,0.75 -2.28,1.07 -3.47,1.07 -1.95,0 -4.67,-1.07 -8.36,-3.44 -3.59,-2.25 -8.25,-4.71 -13.9,-7.4 -5.77,-2.57 -12.5,-5.03 -20.32,-7.39 -7.71,-2.26 -16.52,-3.44 -26.5,-3.44 -8.91,0 -16.74,0.96 -23.57,3 -6.74,2.05 -12.4,4.83 -16.74,8.49 -4.35,3.64 -7.6,8.04 -9.9,13.07 -2.17,5.04 -3.25,10.41 -3.25,16.3 0,8.16 2.06,15.01 6.3,20.58 4.23,5.58 9.77,10.41 16.62,14.59 6.74,4.19 14.46,7.93 23.14,11.37 8.79,3.32 17.59,6.74 26.61,10.29 9.02,3.64 17.94,7.61 26.74,12.02 8.79,4.38 16.62,9.64 23.46,15.97 6.74,6.31 12.16,13.82 16.3,22.63 4.14,8.78 6.3,19.29 6.3,31.41zm319.51 -76.66c0,8.15 -2.06,14.05 -6.2,17.47 -4.12,3.43 -8.79,5.15 -14.11,5.15l-187.85 0c0,15.76 1.62,29.81 4.79,42.46 3.14,12.55 8.47,23.27 15.96,32.28 7.39,9.01 17.06,15.98 28.9,20.79 11.94,4.83 26.4,7.19 43.67,7.19 13.58,0 25.65,-1.07 36.29,-3.32 10.54,-2.14 19.79,-4.61 27.5,-7.4 7.71,-2.69 14.11,-5.15 19.11,-7.29 5,-2.24 8.69,-3.33 11.31,-3.33 1.4,0 2.81,0.32 3.9,1.09 1.19,0.75 2.06,1.82 2.71,3.31 0.65,1.5 1.21,3.53 1.53,6.12 0.22,2.57 0.43,5.79 0.43,9.54 0,2.79 -0.11,5.15 -0.32,7.08 -0.21,2.03 -0.43,3.74 -0.75,5.37 -0.34,1.6 -0.89,2.99 -1.65,4.28 -0.75,1.17 -1.73,2.47 -2.81,3.54 -1.19,1.18 -4.68,3.1 -10.42,5.67 -5.65,2.59 -13.15,5.15 -22.28,7.74 -9.13,2.46 -19.67,4.71 -31.61,6.74 -11.96,1.94 -24.78,3.01 -38.35,3.01 -23.58,0 -44.22,-3.33 -61.94,-9.75 -17.7,-6.55 -32.59,-16.21 -44.75,-28.96 -12.07,-12.76 -21.19,-28.74 -27.39,-48.05 -6.08,-19.3 -9.23,-41.7 -9.23,-67.23 0,-24.23 3.25,-46.1 9.56,-65.5 6.42,-19.31 15.53,-35.82 27.61,-49.34 11.94,-13.51 26.39,-23.8 43.44,-31.1 16.96,-7.18 35.97,-10.82 56.94,-10.82 22.5,0 41.61,3.53 57.47,10.71 15.75,7.08 28.8,16.73 39,28.75 10.22,12.01 17.61,26.15 22.38,42.36 4.79,16.3 7.17,33.55 7.17,51.99l0 9.45zm-52.8 -15.33c0.65,-27.24 -5.42,-48.69 -18.36,-64.13 -12.83,-15.55 -31.83,-23.27 -57.03,-23.27 -13.04,0 -24.35,2.45 -34.12,7.29 -9.77,4.73 -17.93,11.16 -24.44,19.09 -6.64,7.94 -11.75,17.26 -15.32,27.76 -3.59,10.63 -5.65,21.66 -6.08,33.25l155.35 0z"/>
  </g>
 </g>
</svg>
