<svg xmlns="http://www.w3.org/2000/svg" width="133.895" height="100.039" viewBox="0 0 133.895 100.039"><defs><style>.a{fill:#e6c072;}</style></defs><g transform="translate(-0.304 -0.396)"><path class="a" d="M24593.6,43725.727v-.477h1.2v-4.148l-2.842-4.645H24591V43716h4.9v.457h-1.2l2.381,3.941,1.672-3.133c.076-.152.131-.27.164-.344a.571.571,0,0,0,.051-.184.237.237,0,0,0-.129-.219.774.774,0,0,0-.371-.062h-.838V43716h3.139v.457h-.4a.965.965,0,0,0-.633.2,2.8,2.8,0,0,0-.6.852l-1.824,3.41v4.336h1.2v.477Z" transform="translate(-24547.637 -43639.055)"/><path class="a" d="M30477,43725.727v-.477h1.18v-8.793h-1.01V43716h8.1l.027,2.559h-.492a4.416,4.416,0,0,0-1.008-1.672,2.241,2.241,0,0,0-1.486-.43h-1.682v3.988c.043,0,.086.008.137.008s.117,0,.211,0a1.632,1.632,0,0,0,1.2-.414,2.374,2.374,0,0,0,.529-1.363h.494v4.145h-.494a2.351,2.351,0,0,0-.494-1.453,1.728,1.728,0,0,0-1.3-.434h-.285v4.313h1.631a2.687,2.687,0,0,0,1.881-.637,4.522,4.522,0,0,0,1.066-2.141h.461l-.1,3.254Z" transform="translate(-30423.334 -43639.055)"/><path class="a" d="M35862.59,43611.688h2.637l-1.289-3.41Zm-2.59,3.23v-.484h.6a.514.514,0,0,0,.4-.164,1.569,1.569,0,0,0,.328-.578l3.34-8.691h.582l3.656,9.434h.859v.484h-4.7v-.484h1.176l-.852-2.27h-2.957l-.648,1.656a.335.335,0,0,0-.031.137c0,.055-.012.133-.012.211a.2.2,0,0,0,.113.191.566.566,0,0,0,.316.074h.875v.484Z" transform="translate(-35796.906 -43528.254)"/><path class="a" d="M41737,43725.25h1.152v-8.793H41737V43716h5.43a4.983,4.983,0,0,1,2.578.547,1.761,1.761,0,0,1,.895,1.586,1.94,1.94,0,0,1-.844,1.656,4.287,4.287,0,0,1-2.387.684v.125a3.386,3.386,0,0,1,2.238,1,3.762,3.762,0,0,1,.664,2.48,2.16,2.16,0,0,0,.137.926.548.548,0,0,0,.484.215,1.044,1.044,0,0,0,.3-.039,1.531,1.531,0,0,0,.359-.094l.148.4a6.686,6.686,0,0,1-.918.34,3.346,3.346,0,0,1-.777.1,3.121,3.121,0,0,1-1.094-.172,1.922,1.922,0,0,1-.785-.512,3.788,3.788,0,0,1-.625-2.371c-.008-.152-.016-.273-.016-.348a1.986,1.986,0,0,0-.477-1.4,2.1,2.1,0,0,0-1.445-.4h-.266v4.523h1.273v.477H41737Zm3.6-5h1.227a1.454,1.454,0,0,0,1.133-.348,2.556,2.556,0,0,0,.293-1.473,3.377,3.377,0,0,0-.242-1.7c-.168-.2-.559-.277-1.184-.277h-1.227Z" transform="translate(-41663.621 -43639.055)"/><path class="a" d="M47988,43615.027v-2.855h.563a3.87,3.87,0,0,0,1.105,1.883,2.675,2.675,0,0,0,1.8.633,2.407,2.407,0,0,0,1.578-.508,1.581,1.581,0,0,0,.629-1.3,1.27,1.27,0,0,0-.656-1.211,5.911,5.911,0,0,0-1.609-.551c-.3-.062-.527-.117-.687-.16a4.181,4.181,0,0,1-2.047-1.047,2.655,2.655,0,0,1-.637-1.863,2.967,2.967,0,0,1,.852-2.207,3.026,3.026,0,0,1,2.223-.844,3.324,3.324,0,0,1,1.047.156,3.124,3.124,0,0,1,.926.465l.523-.43h.473l.055,2.574h-.488a3.329,3.329,0,0,0-.949-1.73,2.4,2.4,0,0,0-1.652-.59,2.16,2.16,0,0,0-1.355.406,1.219,1.219,0,0,0-.531,1.008c0,.617.652,1.07,1.949,1.359.176.039.3.063.4.086a5.12,5.12,0,0,1,2.555,1.2,3.049,3.049,0,0,1,.738,2.2,3.4,3.4,0,0,1-.945,2.453,3.123,3.123,0,0,1-2.359.973,4.413,4.413,0,0,1-1.273-.168,3.019,3.019,0,0,1-1.02-.512l-.676.57Z" transform="translate(-47903.672 -43528.254)"/><path class="a" d="M17311.9,51344.055c0,1.258.018,2.117.063,2.586a3.341,3.341,0,0,0,.221,1.047,1.576,1.576,0,0,0,.664.766,3.01,3.01,0,0,0,2.348,0,1.547,1.547,0,0,0,.664-.766,3.663,3.663,0,0,0,.236-1.125q.064-.738.066-2.508c0-1.156-.023-2-.066-2.492a3.686,3.686,0,0,0-.236-1.117,1.557,1.557,0,0,0-.664-.77,3.154,3.154,0,0,0-2.348,0,1.586,1.586,0,0,0-.664.77,3.336,3.336,0,0,0-.221,1.039C17311.918,51341.957,17311.9,51342.816,17311.9,51344.055Zm-2.9,0a4.837,4.837,0,0,1,.377-1.871,5.432,5.432,0,0,1,1.1-1.648,5.167,5.167,0,0,1,1.645-1.156,4.96,4.96,0,0,1,3.8,0,5.473,5.473,0,0,1,2.754,2.813,4.7,4.7,0,0,1,.385,1.863,4.853,4.853,0,0,1-.385,1.906,5.4,5.4,0,0,1-1.109,1.656,5.129,5.129,0,0,1-1.629,1.141,4.77,4.77,0,0,1-1.92.375,4.691,4.691,0,0,1-1.906-.375,5.314,5.314,0,0,1-1.637-1.141,5.452,5.452,0,0,1-1.1-1.664A4.928,4.928,0,0,1,17309,51344.055Z" transform="translate(-17278.387 -51248.711)"/><path class="a" d="M23749.033,51459.715v-.473h1.164v-8.8h-1.2V51450h8.273l.086,2.824h-.506a3.809,3.809,0,0,0-.959-1.844,2.528,2.528,0,0,0-1.736-.535h-1.492l.006,3.992a.975.975,0,0,0,.127.012c.055,0,.119,0,.211,0a1.615,1.615,0,0,0,1.188-.418,2.4,2.4,0,0,0,.531-1.359h.494v4.145h-.494a2.333,2.333,0,0,0-.494-1.445,1.7,1.7,0,0,0-1.287-.441h-.281v4.309h1.42v.473Z" transform="translate(-23707.113 -51359.512)"/><path class="a" d="M31385.2,51459.715v-.473h1.2v-8.8h-.529a1.985,1.985,0,0,0-1.508.594,5.274,5.274,0,0,0-.973,2.1H31383l.117-3.137h9.059l.125,3.137h-.387a5.233,5.233,0,0,0-.963-2.078,1.936,1.936,0,0,0-1.494-.613h-.549v8.8h1.2v.473Z" transform="translate(-31327.744 -51359.512)"/><path class="a" d="M37115,51459.242h1.152v-8.8H37115V51450h5.43a5.03,5.03,0,0,1,2.574.543,1.755,1.755,0,0,1,.891,1.582,1.936,1.936,0,0,1-.84,1.656,4.241,4.241,0,0,1-2.383.688v.125a3.439,3.439,0,0,1,2.238.988,3.834,3.834,0,0,1,.66,2.484,2.02,2.02,0,0,0,.137.926.542.542,0,0,0,.492.219,1.746,1.746,0,0,0,.3-.031,2.359,2.359,0,0,0,.355-.1l.152.4a6.13,6.13,0,0,1-.918.332,2.777,2.777,0,0,1-.773.117,3.178,3.178,0,0,1-1.1-.184,2.04,2.04,0,0,1-.781-.508,3.839,3.839,0,0,1-.625-2.371c-.008-.156-.008-.27-.016-.348a1.979,1.979,0,0,0-.477-1.4,2.13,2.13,0,0,0-1.449-.395h-.262v4.516h1.277v.473H37115Zm3.6-5h1.227a1.454,1.454,0,0,0,1.129-.34,2.491,2.491,0,0,0,.293-1.477,3.289,3.289,0,0,0-.246-1.7c-.16-.191-.555-.281-1.176-.281h-1.227Z" transform="translate(-37049.715 -51359.512)"/><path class="a" d="M43196.145,51457.094v-6.648H43195V51450h4.859v.445h-1.277v6.6a2.75,2.75,0,0,0,.492,1.8,1.831,1.831,0,0,0,1.5.566,3.072,3.072,0,0,0,1-.152,2.3,2.3,0,0,0,.773-.461,1.926,1.926,0,0,0,.52-.812,6.384,6.384,0,0,0,.152-1.672v-5.094a.969.969,0,0,0-.129-.629c-.082-.094-.273-.141-.605-.141h-.477V51450h3.082v.445h-.477a1.074,1.074,0,0,0-.684.152.9.9,0,0,0-.16.633v5.078a8.257,8.257,0,0,1-.105,1.578,2.071,2.071,0,0,1-.363.828,2.566,2.566,0,0,1-1.2.926,5.164,5.164,0,0,1-1.9.3,4.758,4.758,0,0,1-2.875-.734A2.459,2.459,0,0,1,43196.145,51457.094Z" transform="translate(-43119.063 -51359.512)"/><path class="a" d="M49430,51349.027v-2.852h.566a3.891,3.891,0,0,0,1.105,1.875,2.721,2.721,0,0,0,1.809.641,2.4,2.4,0,0,0,1.574-.516,1.622,1.622,0,0,0,.625-1.3,1.593,1.593,0,0,0-.145-.7,1.485,1.485,0,0,0-.508-.5,5.5,5.5,0,0,0-1.613-.547c-.3-.066-.523-.125-.687-.164a4.152,4.152,0,0,1-2.047-1.055,2.616,2.616,0,0,1-.641-1.852,2.979,2.979,0,0,1,.852-2.211,3.038,3.038,0,0,1,2.23-.844,3.434,3.434,0,0,1,1.043.152,3.05,3.05,0,0,1,.918.469l.535-.43h.469l.063,2.578h-.5a3.394,3.394,0,0,0-.945-1.734,2.385,2.385,0,0,0-1.66-.586,2.173,2.173,0,0,0-1.355.4,1.21,1.21,0,0,0-.527,1.008c0,.617.652,1.07,1.949,1.359l.4.082a5.185,5.185,0,0,1,2.563,1.2,3.107,3.107,0,0,1,.73,2.211,3.388,3.388,0,0,1-.934,2.445,3.138,3.138,0,0,1-2.367.973,4.459,4.459,0,0,1-1.273-.164,3.22,3.22,0,0,1-1.02-.516l-.676.574Z" transform="translate(-49343.152 -51248.711)"/><path class="a" d="M53846.2,51459.715v-.473h1.2v-8.8h-.531a1.959,1.959,0,0,0-1.5.594,5.089,5.089,0,0,0-.977,2.1H53844l.117-3.137h9.063l.125,3.137h-.4a4.931,4.931,0,0,0-.961-2.078,1.912,1.912,0,0,0-1.484-.613h-.555v8.8h1.188v.473Z" transform="translate(-53749.418 -51359.512)"/><path class="a" d="M23405,16144.534q7.474,0,10.193-.712a11.713,11.713,0,0,0,5.006-2.822h.869v36.467a6.548,6.548,0,0,0,.248,2.307c.08.168.361.34.838.527a10.886,10.886,0,0,0,2.545.464,39.834,39.834,0,0,0,4.064.187v.561H23405v-.561q2.666,0,4.623-.187a11.407,11.407,0,0,0,2.668-.464,1.717,1.717,0,0,0,.93-.682,6.2,6.2,0,0,0,.215-2.152v-28.888a4.358,4.358,0,0,0-.336-2.152,2.3,2.3,0,0,0-1.088-.742,8.2,8.2,0,0,0-2.234-.373q-1.491-.1-4.777-.094Z" transform="translate(-23363.713 -16112.342)"/><path class="a" d="M38226.508,16158.865a4.926,4.926,0,0,0,.926.063,3.927,3.927,0,0,0,3.609-2.1,10.707,10.707,0,0,0,1.2-5.315c0-3.838-.543-6.513-1.609-8.043a4.552,4.552,0,0,0-3.949-1.913,7.841,7.841,0,0,0-4.551,1.332,6.076,6.076,0,0,0-2.508,3.938,1.685,1.685,0,0,1,.523-.277,1.826,1.826,0,0,1,.578-.092,2.539,2.539,0,0,1,1.941,1.076,2.837,2.837,0,0,1,.645,2.428,3.48,3.48,0,0,1-1.23,2.151,3.551,3.551,0,0,1-2.273.8,2.641,2.641,0,0,1-2.762-2.109,6.145,6.145,0,0,1-.191-1.551,7.356,7.356,0,0,1,2.8-5.585,11.05,11.05,0,0,1,7.566-2.666,13.145,13.145,0,0,1,9.238,3.351,9.107,9.107,0,0,1,3.3,6.823,6.267,6.267,0,0,1-3.164,5.461,18.9,18.9,0,0,1-7.383,2.418q5.578,0,8.555,2.42,3.223,2.669,3.227,7.878,0,6.207-5.77,9.864a16.3,16.3,0,0,1-8.8,2.854,11.4,11.4,0,0,1-8.07-3.132,9.569,9.569,0,0,1-3.348-7.167,4.6,4.6,0,0,1,1.262-3.535,4.29,4.29,0,0,1,3.051-1.18,3.333,3.333,0,0,1,1.836.435,2.942,2.942,0,0,1,1.547,2.853,3.932,3.932,0,0,1-.984,2.668,3.36,3.36,0,0,1-2.645,1.117,5.163,5.163,0,0,1-.781-.061,4.52,4.52,0,0,1-.762-.187c-.211,1.539.434,3.141,1.922,4.818a7.953,7.953,0,0,0,6.121,2.813,6.929,6.929,0,0,0,4.887-2.242q3.029-2.921,3.031-8.337,0-6.158-1.387-8.8a4.209,4.209,0,0,0-3.793-2.646,5.625,5.625,0,0,0-1.832.34c-.629.23-1.281.438-1.937.623a6.641,6.641,0,0,1-1.793.279c-.98,0-1.559-.373-1.723-1.117a1.1,1.1,0,0,1,.59-.961,2.911,2.911,0,0,1,1.379-.281,9.072,9.072,0,0,1,1.7.186C38225.328,16158.68,38225.93,16158.785,38226.508,16158.865Z" transform="translate(-38147.785 -16112.342)"/><g transform="translate(0.304 0.396)"><path class="a" d="M43021.664,86.062a.917.917,0,0,1-.641-1.719,37.373,37.373,0,0,0,18.629-15.9,37.415,37.415,0,0,0,5.281-23.92,38.61,38.61,0,0,0-31.965-32.111,3.584,3.584,0,0,1-1.133.6,5.483,5.483,0,0,1-2.3.25,9.8,9.8,0,0,1-4.426-1.8,29.178,29.178,0,0,1-3.629-3.1.564.564,0,0,1,.3-.96c1.016-.21,2.047-.422,3.086-.553a13.753,13.753,0,0,1,3.23-.067,9.191,9.191,0,0,1,3.141.933,5.277,5.277,0,0,1,2.1,1.844,2.594,2.594,0,0,1,.414,1.112h0a40.429,40.429,0,0,1,33,33.613,39.255,39.255,0,0,1-5.516,25.1A39.265,39.265,0,0,1,43021.664,86.062Zm13.785-7.2a12.069,12.069,0,0,1,5.7-1.343,36.219,36.219,0,0,1,5.848.525.567.567,0,0,1,.48.637.579.579,0,0,1-.164.32c-.875.944-1.762,1.895-2.719,2.772a16.755,16.755,0,0,1-3.184,2.362,11.273,11.273,0,0,1-3.8,1.3,6.448,6.448,0,0,1-3.371-.345,3.083,3.083,0,0,1-1.164-.791,2.191,2.191,0,0,1-.516-1.826,4,4,0,0,1,.773-1.737A6.789,6.789,0,0,1,43035.449,78.858Zm14.1-33.619a12.07,12.07,0,0,1,4.262-4.022,36.28,36.28,0,0,1,5.324-2.481.561.561,0,0,1,.73.317.509.509,0,0,1,.012.371c-.285,1.255-.574,2.523-.953,3.747a17.1,17.1,0,0,1-1.57,3.642,11.333,11.333,0,0,1-2.641,3.022,6.419,6.419,0,0,1-3.094,1.394,3.14,3.14,0,0,1-1.4-.1,2.149,2.149,0,0,1-1.352-1.322,4,4,0,0,1-.211-1.888A6.668,6.668,0,0,1,43049.547,45.239Zm-1.91,12.479a12.126,12.126,0,0,1,4.656-3.551,36.025,36.025,0,0,1,5.566-1.9.555.555,0,0,1,.684.39.455.455,0,0,1-.008.329c-.418,1.231-.848,2.474-1.367,3.667a16.232,16.232,0,0,1-1.945,3.455,11.146,11.146,0,0,1-2.934,2.73,6.412,6.412,0,0,1-3.223,1.059,3.144,3.144,0,0,1-1.379-.249,2.189,2.189,0,0,1-1.215-1.455,4.154,4.154,0,0,1,0-1.9A6.77,6.77,0,0,1,43047.637,57.719Zm-2.922,10.488a12.124,12.124,0,0,1,5.715-1.152,36.118,36.118,0,0,1,5.832.7.554.554,0,0,1,.449.65.537.537,0,0,1-.152.294c-.9.923-1.824,1.856-2.82,2.711a16.559,16.559,0,0,1-3.25,2.264,11.248,11.248,0,0,1-3.832,1.178,6.466,6.466,0,0,1-3.367-.448,3.093,3.093,0,0,1-1.129-.825,2.151,2.151,0,0,1-.461-1.84,3.973,3.973,0,0,1,.82-1.712,6.712,6.712,0,0,1,2.164-1.809Zm1.645-32.883A12.154,12.154,0,0,1,43048,29.7a36.742,36.742,0,0,1,3.352-4.829.558.558,0,0,1,.785-.1.611.611,0,0,1,.191.273c.391,1.227.785,2.471,1.078,3.759a17.264,17.264,0,0,1,.48,3.933,11.2,11.2,0,0,1-.746,3.94,6.388,6.388,0,0,1-1.965,2.765,3.039,3.039,0,0,1-1.266.618,2.162,2.162,0,0,1-1.836-.452,4.09,4.09,0,0,1-1.129-1.527l-.016-.035A6.625,6.625,0,0,1,43046.359,35.324ZM43013.4,19.136a8.321,8.321,0,0,1-3.949.793,24.371,24.371,0,0,1-3.961-.49.553.553,0,0,1-.445-.653.471.471,0,0,1,.152-.294c.621-.623,1.242-1.252,1.91-1.828a11.394,11.394,0,0,1,2.238-1.539,7.723,7.723,0,0,1,2.648-.807,4.536,4.536,0,0,1,2.355.324,2.278,2.278,0,0,1,.828.609,1.628,1.628,0,0,1,.344,1.389,2.95,2.95,0,0,1-.59,1.234A4.7,4.7,0,0,1,43013.4,19.136Zm1.453-10.55a8.358,8.358,0,0,1-1.746-3.637,24.727,24.727,0,0,1-.492-3.957.555.555,0,0,1,.527-.6.569.569,0,0,1,.32.077c.746.445,1.5.9,2.238,1.406a11.586,11.586,0,0,1,2.043,1.786l.031.035a7.8,7.8,0,0,1,1.4,2.336,4.557,4.557,0,0,1,.258,2.366,2.207,2.207,0,0,1-.383.953l-.031.042a1.641,1.641,0,0,1-1.23.634,2.929,2.929,0,0,1-1.34-.273A4.776,4.776,0,0,1,43014.855,8.586Zm8.488,2.9a10.394,10.394,0,0,1-2.172-4.542,30.787,30.787,0,0,1-.625-4.987.556.556,0,0,1,.523-.6.575.575,0,0,1,.324.077c.945.562,1.91,1.131,2.828,1.775a14.619,14.619,0,0,1,2.563,2.238,9.712,9.712,0,0,1,1.777,2.952,5.52,5.52,0,0,1,.328,2.917,2.763,2.763,0,0,1-.461,1.143,1.938,1.938,0,0,1-1.492.8,3.569,3.569,0,0,1-1.625-.334A5.877,5.877,0,0,1,43023.344,11.482Zm-.492,10.453a9.162,9.162,0,0,1-4.379.721,27.335,27.335,0,0,1-4.363-.7.559.559,0,0,1-.422-.669.583.583,0,0,1,.16-.287c.7-.658,1.41-1.322,2.191-1.947a12.281,12.281,0,0,1,2.527-1.616,8.566,8.566,0,0,1,2.941-.786,4.932,4.932,0,0,1,2.566.446,2.535,2.535,0,0,1,.879.69,1.781,1.781,0,0,1,.313,1.5,3.2,3.2,0,0,1-.687,1.317A5.232,5.232,0,0,1,43022.852,21.936Zm8.344,8.5a12.084,12.084,0,0,1-5.512-1.984,36.316,36.316,0,0,1-4.625-3.632.56.56,0,0,1,.238-.963c1.258-.317,2.52-.634,3.82-.851a16.6,16.6,0,0,1,3.953-.243,11.209,11.209,0,0,1,3.887.982,6.46,6.46,0,0,1,2.641,2.129,3.181,3.181,0,0,1,.543,1.3,2.181,2.181,0,0,1-.566,1.809,4.053,4.053,0,0,1-1.594,1.035A6.7,6.7,0,0,1,43031.2,30.433Zm.426-15.142a12.082,12.082,0,0,1,.074-5.857,36.536,36.536,0,0,1,1.938-5.551.558.558,0,0,1,.73-.3.536.536,0,0,1,.27.24c.7,1.075,1.41,2.164,2.035,3.306a17.01,17.01,0,0,1,1.516,3.663,11.544,11.544,0,0,1,.344,3.994,6.519,6.519,0,0,1-1.16,3.19l-.031.037a3.053,3.053,0,0,1-1.023.9,2.164,2.164,0,0,1-1.891.058,4.042,4.042,0,0,1-1.5-1.17A6.626,6.626,0,0,1,43031.621,15.291Zm8.332,8.54a12.074,12.074,0,0,1,1.645-5.624,35.626,35.626,0,0,1,3.348-4.829.559.559,0,0,1,.785-.1.592.592,0,0,1,.191.273c.391,1.227.781,2.471,1.074,3.758a16.848,16.848,0,0,1,.488,3.934,11.212,11.212,0,0,1-.754,3.94,6.466,6.466,0,0,1-1.961,2.765,3.141,3.141,0,0,1-1.262.618,2.182,2.182,0,0,1-1.844-.452,4.042,4.042,0,0,1-1.129-1.529l-.02-.033A6.874,6.874,0,0,1,43039.953,23.83Zm-3.711,17.046a12.061,12.061,0,0,1-4.754-3.427,35.73,35.73,0,0,1-3.449-4.764.563.563,0,0,1,.535-.86c1.285.044,2.59.089,3.863.233a16.727,16.727,0,0,1,3.871.858,11.247,11.247,0,0,1,3.465,2.015,6.406,6.406,0,0,1,1.957,2.772,3.065,3.065,0,0,1,.16,1.4,2.176,2.176,0,0,1-1.035,1.586,4.091,4.091,0,0,1-1.82.559A6.706,6.706,0,0,1,43036.242,40.876Zm.277,13.859a12.167,12.167,0,0,1-1.965-5.519,36.007,36.007,0,0,1-.121-5.873.558.558,0,0,1,.578-.541.528.528,0,0,1,.324.119c1.047.774,2.105,1.56,3.07,2.4l.035.03a16.556,16.556,0,0,1,2.66,2.877,11.332,11.332,0,0,1,1.711,3.632,6.437,6.437,0,0,1,.027,3.388,3.126,3.126,0,0,1-.656,1.241,2.177,2.177,0,0,1-1.762.713,3.99,3.99,0,0,1-1.8-.573A6.722,6.722,0,0,1,43036.52,54.735Zm-4.719,12.782a12.085,12.085,0,0,1-.395-5.841,35.511,35.511,0,0,1,1.48-5.689.557.557,0,0,1,.7-.362.524.524,0,0,1,.273.193c.8,1.028,1.605,2.07,2.309,3.154a16.337,16.337,0,0,1,1.809,3.532,11.227,11.227,0,0,1,.66,3.95,6.439,6.439,0,0,1-.9,3.274,3,3,0,0,1-.969,1.016,2.169,2.169,0,0,1-1.883.21,4.021,4.021,0,0,1-1.586-1.045A6.692,6.692,0,0,1,43031.8,67.517Zm-10.953,9.767v-.016a12.022,12.022,0,0,1,1.648-5.607,35.6,35.6,0,0,1,3.344-4.829.557.557,0,0,1,.785-.1.524.524,0,0,1,.188.273c.391,1.229.785,2.471,1.09,3.759a17.044,17.044,0,0,1,.473,3.934,11.287,11.287,0,0,1-.738,3.94,6.548,6.548,0,0,1-1.969,2.765,3.13,3.13,0,0,1-1.266.618l-.02,0a2.144,2.144,0,0,1-1.812-.457,4.065,4.065,0,0,1-1.137-1.527A6.712,6.712,0,0,1,43020.848,77.284Z" transform="translate(-42926.012 -0.396)"/><path class="a" d="M38.538,86.062a.918.918,0,1,0,.641-1.719,37.392,37.392,0,0,1-18.627-15.9,37.391,37.391,0,0,1-5.276-23.92A37.381,37.381,0,0,1,26.554,22.787,37.65,37.65,0,0,1,47.236,12.414a3.636,3.636,0,0,0,1.129.6,5.522,5.522,0,0,0,2.31.25,9.838,9.838,0,0,0,4.43-1.8,29.34,29.34,0,0,0,3.621-3.1.563.563,0,0,0,.016-.793.572.572,0,0,0-.317-.166c-1.016-.21-2.045-.422-3.09-.553a13.708,13.708,0,0,0-3.225-.067,9.208,9.208,0,0,0-3.141.933,5.3,5.3,0,0,0-2.1,1.844,2.611,2.611,0,0,0-.408,1.112h0a39.591,39.591,0,0,0-21.18,10.788A39.248,39.248,0,0,0,13.453,44.287a39.231,39.231,0,0,0,5.523,25.1A39.227,39.227,0,0,0,38.538,86.062Zm-13.78-7.2a12.075,12.075,0,0,0-5.7-1.343,36.3,36.3,0,0,0-5.85.525.561.561,0,0,0-.475.637.543.543,0,0,0,.163.32c.875.944,1.761,1.895,2.716,2.772A16.738,16.738,0,0,0,18.8,84.132a11.274,11.274,0,0,0,3.794,1.3,6.449,6.449,0,0,0,3.372-.345,3.124,3.124,0,0,0,1.163-.791,2.171,2.171,0,0,0,.515-1.826,4.047,4.047,0,0,0-.77-1.737A6.736,6.736,0,0,0,24.757,78.858Zm-14.1-33.619A12.072,12.072,0,0,0,6.4,41.217a36.073,36.073,0,0,0-5.326-2.481.564.564,0,0,0-.744.688c.285,1.255.576,2.523.958,3.747a16.836,16.836,0,0,0,1.572,3.642A11.257,11.257,0,0,0,5.49,49.836a6.464,6.464,0,0,0,3.1,1.394,3.14,3.14,0,0,0,1.4-.1A2.18,2.18,0,0,0,11.345,49.8a4.056,4.056,0,0,0,.2-1.888A6.7,6.7,0,0,0,10.659,45.239Zm1.912,12.479a12.092,12.092,0,0,0-4.659-3.551,36.106,36.106,0,0,0-5.561-1.9.561.561,0,0,0-.69.39.568.568,0,0,0,.011.329c.418,1.231.844,2.474,1.359,3.667a16.741,16.741,0,0,0,1.949,3.455,11.223,11.223,0,0,0,2.935,2.73,6.435,6.435,0,0,0,3.225,1.059,3.131,3.131,0,0,0,1.378-.249,2.177,2.177,0,0,0,1.217-1.455,4.044,4.044,0,0,0,0-1.9A6.731,6.731,0,0,0,12.571,57.719Zm2.915,10.488A12.076,12.076,0,0,0,9.78,67.055a36.1,36.1,0,0,0-5.834.7.559.559,0,0,0-.3.944c.911.923,1.832,1.856,2.819,2.711a16.833,16.833,0,0,0,3.259,2.264,11.235,11.235,0,0,0,3.831,1.178,6.443,6.443,0,0,0,3.362-.448,3.138,3.138,0,0,0,1.135-.825,2.177,2.177,0,0,0,.462-1.84,4.059,4.059,0,0,0-.825-1.712,6.735,6.735,0,0,0-2.168-1.809ZM13.847,35.324A12.083,12.083,0,0,0,12.2,29.7a36.3,36.3,0,0,0-3.346-4.829.559.559,0,0,0-.786-.1.574.574,0,0,0-.191.273C7.488,26.276,7.1,27.52,6.8,28.808a16.584,16.584,0,0,0-.48,3.933,11.217,11.217,0,0,0,.744,3.94A6.427,6.427,0,0,0,9.03,39.445a3.1,3.1,0,0,0,1.261.618,2.169,2.169,0,0,0,1.84-.452,4.059,4.059,0,0,0,1.131-1.527l.014-.035A6.735,6.735,0,0,0,13.847,35.324ZM46.8,19.136a8.319,8.319,0,0,0,3.954.793,24.4,24.4,0,0,0,3.957-.49.561.561,0,0,0,.3-.947c-.618-.623-1.245-1.252-1.916-1.828a11.4,11.4,0,0,0-2.232-1.539,7.758,7.758,0,0,0-2.649-.807,4.536,4.536,0,0,0-2.357.324,2.255,2.255,0,0,0-.826.609,1.647,1.647,0,0,0-.347,1.389,2.931,2.931,0,0,0,.594,1.234A4.731,4.731,0,0,0,46.8,19.136ZM45.351,8.586A8.318,8.318,0,0,0,47.095,4.95a24.678,24.678,0,0,0,.5-3.957.562.562,0,0,0-.847-.518c-.753.445-1.515.9-2.241,1.406a11.542,11.542,0,0,0-2.045,1.786L42.43,3.7a7.777,7.777,0,0,0-1.4,2.336A4.523,4.523,0,0,0,40.763,8.4a2.291,2.291,0,0,0,.387.953l.033.042a1.643,1.643,0,0,0,1.229.634,2.922,2.922,0,0,0,1.338-.273A4.735,4.735,0,0,0,45.351,8.586Zm-8.489,2.9A10.393,10.393,0,0,0,39.035,6.94a30.819,30.819,0,0,0,.625-4.987.562.562,0,0,0-.525-.6.556.556,0,0,0-.32.077C37.862,2,36.9,2.566,35.985,3.211a14.35,14.35,0,0,0-2.56,2.238A9.653,9.653,0,0,0,31.64,8.4a5.58,5.58,0,0,0-.329,2.917,2.749,2.749,0,0,0,.462,1.143,1.941,1.941,0,0,0,1.49.8,3.552,3.552,0,0,0,1.625-.334A5.84,5.84,0,0,0,36.862,11.482Zm.489,10.453a9.184,9.184,0,0,0,4.386.721,27.226,27.226,0,0,0,4.358-.7A.561.561,0,0,0,46.357,21c-.7-.658-1.408-1.322-2.19-1.947a12.528,12.528,0,0,0-2.523-1.616,8.582,8.582,0,0,0-2.945-.786,4.946,4.946,0,0,0-2.569.446,2.481,2.481,0,0,0-.874.69,1.757,1.757,0,0,0-.319,1.5,3.153,3.153,0,0,0,.7,1.317A5.189,5.189,0,0,0,37.35,21.936Zm-8.338,8.5a12.088,12.088,0,0,0,5.514-1.984,36.164,36.164,0,0,0,4.619-3.632.56.56,0,0,0,.049-.791.567.567,0,0,0-.284-.172c-1.255-.317-2.525-.634-3.817-.851a16.632,16.632,0,0,0-3.955-.243,11.226,11.226,0,0,0-3.889.982,6.459,6.459,0,0,0-2.64,2.129,3.094,3.094,0,0,0-.541,1.3,2.172,2.172,0,0,0,.562,1.809,4.081,4.081,0,0,0,1.593,1.035A6.722,6.722,0,0,0,29.012,30.433Zm-.424-15.142a12.1,12.1,0,0,0-.082-5.857,36.009,36.009,0,0,0-1.931-5.551.562.562,0,0,0-.734-.3.556.556,0,0,0-.273.24c-.7,1.075-1.406,2.164-2.028,3.306a16.744,16.744,0,0,0-1.518,3.663,11.209,11.209,0,0,0-.336,3.994,6.446,6.446,0,0,0,1.154,3.19l.03.037a3.082,3.082,0,0,0,1.021.9,2.172,2.172,0,0,0,1.895.058,4.06,4.06,0,0,0,1.5-1.17A6.74,6.74,0,0,0,28.589,15.291Zm-8.333,8.54a12.091,12.091,0,0,0-1.646-5.624,36.147,36.147,0,0,0-3.348-4.829.56.56,0,0,0-.786-.1.544.544,0,0,0-.189.273c-.39,1.227-.781,2.471-1.079,3.758a16.68,16.68,0,0,0-.482,3.934,11.259,11.259,0,0,0,.746,3.94,6.459,6.459,0,0,0,1.965,2.765,3.126,3.126,0,0,0,1.261.618,2.174,2.174,0,0,0,1.842-.452,4.052,4.052,0,0,0,1.131-1.529l.014-.033A6.762,6.762,0,0,0,20.256,23.83Zm3.714,17.046a12.108,12.108,0,0,0,4.754-3.427,36.079,36.079,0,0,0,3.441-4.764.563.563,0,0,0-.173-.776.57.57,0,0,0-.357-.084c-1.289.044-2.59.089-3.864.233a16.758,16.758,0,0,0-3.873.858,11.255,11.255,0,0,0-3.467,2.015A6.448,6.448,0,0,0,18.477,37.7a3.106,3.106,0,0,0-.161,1.4,2.178,2.178,0,0,0,1.04,1.586,4.056,4.056,0,0,0,1.816.559A6.744,6.744,0,0,0,23.969,40.876Zm-.285,13.859a12.063,12.063,0,0,0,1.965-5.519,36.193,36.193,0,0,0,.124-5.873.56.56,0,0,0-.905-.422c-1.047.774-2.1,1.56-3.068,2.4l-.032.03A16.689,16.689,0,0,0,19.1,48.228a11.252,11.252,0,0,0-1.709,3.632,6.433,6.433,0,0,0-.028,3.388,3.11,3.11,0,0,0,.66,1.241,2.166,2.166,0,0,0,1.754.713,4.045,4.045,0,0,0,1.811-.573A6.731,6.731,0,0,0,23.684,54.735ZM28.4,67.517a12.076,12.076,0,0,0,.394-5.841,36.348,36.348,0,0,0-1.478-5.689.559.559,0,0,0-.977-.17c-.8,1.028-1.6,2.07-2.31,3.154A16.893,16.893,0,0,0,22.226,62.5a11.249,11.249,0,0,0-.657,3.95,6.463,6.463,0,0,0,.891,3.274,3.124,3.124,0,0,0,.972,1.016,2.174,2.174,0,0,0,1.884.21A4.022,4.022,0,0,0,26.9,69.907,6.728,6.728,0,0,0,28.4,67.517Zm10.951,9.767v-.016a12.092,12.092,0,0,0-1.642-5.607,36.146,36.146,0,0,0-3.348-4.829.561.561,0,0,0-.977.175c-.39,1.229-.781,2.471-1.079,3.759a16.678,16.678,0,0,0-.48,3.934,11.274,11.274,0,0,0,.746,3.94,6.444,6.444,0,0,0,1.965,2.765,3.126,3.126,0,0,0,1.261.618l.025,0a2.169,2.169,0,0,0,1.818-.457,4.06,4.06,0,0,0,1.131-1.527A6.734,6.734,0,0,0,39.355,77.284Z" transform="translate(-0.304 -0.396)"/></g></g></svg>