<svg xmlns="http://www.w3.org/2000/svg" xmlns:xlink="http://www.w3.org/1999/xlink" width="143.758" height="49.848" viewBox="0 0 143.758 49.848"><defs><style>.a,.b,.d{fill:#fff;}.a{clip-rule:evenodd;}.c{clip-path:url(#a);}.d{fill-rule:evenodd;}.e{fill:none;}</style><clipPath id="a"><path class="a" d="M0,22.864c.309,6.743,5.01,22.454,19.733,26.846a3.118,3.118,0,0,0,1.423,0c6.464-.959,12.526-5.474,16.207-10.7.433-.619.4-.773-.309-.773H32.444c-1.33.031-1.206-.062-1.825.464-.093.093-.4.34-.526.464a23.7,23.7,0,0,1-8.567,4.361,2.081,2.081,0,0,1-2.2-.093C10.3,39.782,5.938,29.978,5.443,24.349c-.309-3.588-.062-7.918-.062-11.567a.772.772,0,0,1,.495-.8C10.3,10.029,15.31,8.049,19.733,6.1a1.475,1.475,0,0,1,1.392.062l.464.155c4.268,1.887,9.062,3.773,13.3,5.66a.8.8,0,0,1,.526.8v1.052c0,.155-.124.186-.216.186l-10.949-.031H21.5c-.99,0-.99.247-.99,1.206v2.969c0,1.268,0,1.361,1.113,1.33H39.991c.619-.062.8-.247.8-.99v-4.98h0V9.163a.825.825,0,0,0-.4-.773L22.671.843l-1.3-.557c-.835-.371-.9-.495-1.763-.093L.4,8.39a.825.825,0,0,0-.4.773ZM22.671.843Z" transform="translate(0 0.056)"/></clipPath></defs><g transform="translate(0 0.056)"><path class="b" d="M0,22.864c.309,6.743,5.01,22.454,19.733,26.846a3.118,3.118,0,0,0,1.423,0c6.464-.959,12.526-5.474,16.207-10.7.433-.619.4-.773-.309-.773H32.444c-1.33.031-1.206-.062-1.825.464-.093.093-.4.34-.526.464a23.7,23.7,0,0,1-8.567,4.361,2.081,2.081,0,0,1-2.2-.093C10.3,39.782,5.938,29.978,5.443,24.349c-.309-3.588-.062-7.918-.062-11.567a.772.772,0,0,1,.495-.8C10.3,10.029,15.31,8.049,19.733,6.1a1.475,1.475,0,0,1,1.392.062l.464.155c4.268,1.887,9.062,3.773,13.3,5.66a.8.8,0,0,1,.526.8v1.052c0,.155-.124.186-.216.186l-10.949-.031H21.5c-.99,0-.99.247-.99,1.206v2.969c0,1.268,0,1.361,1.113,1.33H39.991c.619-.062.8-.247.8-.99v-4.98h0V9.163a.825.825,0,0,0-.4-.773L22.671.843l-1.3-.557c-.835-.371-.9-.495-1.763-.093L.4,8.39a.825.825,0,0,0-.4.773ZM22.671.843h0" transform="translate(0 0)"/><g class="c" transform="translate(0 -0.056)"><g transform="translate(-1.113 -8.164)"><path class="d" d="M-36-264h21.619v65.538H-36Z" transform="translate(36 264)"/></g></g><path class="e" d="M0,22.864c.309,6.743,5.01,22.454,19.733,26.846a3.118,3.118,0,0,0,1.423,0c6.464-.959,12.526-5.474,16.207-10.7.433-.619.4-.773-.309-.773H32.444c-1.33.031-1.206-.062-1.825.464-.093.093-.4.34-.526.464a23.7,23.7,0,0,1-8.567,4.361,2.081,2.081,0,0,1-2.2-.093C10.3,39.782,5.938,29.978,5.443,24.349c-.309-3.588-.062-7.918-.062-11.567a.772.772,0,0,1,.495-.8C10.3,10.029,15.31,8.049,19.733,6.1a1.475,1.475,0,0,1,1.392.062l.464.155c4.268,1.887,9.062,3.773,13.3,5.66a.8.8,0,0,1,.526.8v1.052c0,.155-.124.186-.216.186l-10.949-.031H21.5c-.99,0-.99.247-.99,1.206v2.969c0,1.268,0,1.361,1.113,1.33H39.991c.619-.062.8-.247.8-.99v-4.98h0V9.163a.825.825,0,0,0-.4-.773L22.671.843l-1.3-.557c-.835-.371-.9-.495-1.763-.093L.4,8.39a.825.825,0,0,0-.4.773ZM22.671.843h0" transform="translate(0 0)"/><path class="b" d="M649.918,753.743c-.65,0-1.516-.031-2.629-.062-1.083-.062-1.825-.124-2.2-.186v-.835h5.01a4.493,4.493,0,0,0,2.165-.4,1.821,1.821,0,0,0,.711-1.7v-.588a1.775,1.775,0,0,0-.65-1.485,2.926,2.926,0,0,0-1.887-.495h-1.7a4.748,4.748,0,0,1-2.784-.68,2.728,2.728,0,0,1-.959-2.32v-.619a3.1,3.1,0,0,1,1.021-2.567,5.284,5.284,0,0,1,3.217-.8c.65,0,1.423.031,2.351.093s1.639.124,2.134.186v.866h-4.67a3.626,3.626,0,0,0-2.134.495,1.94,1.94,0,0,0-.681,1.732v.526a1.675,1.675,0,0,0,.65,1.546,4.362,4.362,0,0,0,2.041.371h1.7a4.063,4.063,0,0,1,2.6.773,2.754,2.754,0,0,1,.959,2.258v.8a2.584,2.584,0,0,1-1.113,2.412A5.975,5.975,0,0,1,649.918,753.743Z" transform="translate(-625.051 -718.136)"/><path class="b" d="M1015,738.216h1.021l.34,1.423a8.616,8.616,0,0,1,4.825-1.639,3.862,3.862,0,0,1,1.98.526,3.523,3.523,0,0,1,1.3,1.392,10.208,10.208,0,0,1,2.474-1.33,8.021,8.021,0,0,1,2.753-.588,3.584,3.584,0,0,1,2.907,1.206,4.311,4.311,0,0,1,.99,2.969v8.536h-1.361v-8.443a3.049,3.049,0,0,0-.773-2.165,2.794,2.794,0,0,0-2.1-.866,7.116,7.116,0,0,0-2.319.433,10.8,10.8,0,0,0-2.351,1.083,4.277,4.277,0,0,1,.309,1.516v8.443h-1.361v-8.443a3.07,3.07,0,0,0-.8-2.165,2.679,2.679,0,0,0-2.072-.866,6.681,6.681,0,0,0-2.2.34,10.838,10.838,0,0,0-2.2.99v10.145H1015Z" transform="translate(-983.607 -715.228)"/><path class="b" d="M1686.155,750.836a3.21,3.21,0,0,1-2.289-.835,2.938,2.938,0,0,1-.866-2.258v-.866a3,3,0,0,1,.99-2.412,4.123,4.123,0,0,1,2.846-.866h4.546v-1.763a2.648,2.648,0,0,0-.711-2.01,3.929,3.929,0,0,0-2.66-.68h-3.928v-.835a36.2,36.2,0,0,1,4.392-.309,4.736,4.736,0,0,1,3.248.928,3.676,3.676,0,0,1,1.021,2.845v8.938h-1.021l-.278-1.453a11.361,11.361,0,0,1-1.083.495,14.613,14.613,0,0,1-2.072.742A6.672,6.672,0,0,1,1686.155,750.836Zm.557-1.083a6.664,6.664,0,0,0,1.763-.247q1.021-.278,1.856-.557c.526-.217.9-.34,1.052-.4v-4.237l-4.33.155a2.938,2.938,0,0,0-2.041.711,2.358,2.358,0,0,0-.649,1.732v.588a2.051,2.051,0,0,0,.68,1.732A2.569,2.569,0,0,0,1686.711,749.753Z" transform="translate(-1630.946 -715.228)"/><path class="b" d="M2090,741.124h1.021l.34,2.258a8.993,8.993,0,0,1,2.072-1.763,5.369,5.369,0,0,1,3.65-.495v1.392a8.362,8.362,0,0,0-1.33-.155,4.766,4.766,0,0,0-2.258.495,8.515,8.515,0,0,0-2.134,1.577v9.186H2090Z" transform="translate(-2025.359 -718.136)"/><path class="b" d="M2339.32,647.99a3.326,3.326,0,0,1-2.6-.928,4.249,4.249,0,0,1-.8-3l.062-7.423H2334v-.9l1.979-.247.248-3.495h1.051v3.495h3.773v1.144h-3.773v7.423a2.926,2.926,0,0,0,.588,2.165,2.31,2.31,0,0,0,1.485.619l1.515.155v.99Z" transform="translate(-2261.812 -612.507)"/><path class="b" d="M2588.743,743.887l-1.948.371a2.579,2.579,0,0,1,.68,1.021,3.849,3.849,0,0,1,.278,1.608,3.633,3.633,0,0,1-1.114,2.784,4.8,4.8,0,0,1-3.433,1.052h-2.227c-.959,0-1.423.278-1.423.866a.518.518,0,0,0,.309.526,1.507,1.507,0,0,0,.773.186h3.464a5.318,5.318,0,0,1,3.4.9,3.35,3.35,0,0,1,1.145,2.845v.371a3.774,3.774,0,0,1-1.175,2.938,5.454,5.454,0,0,1-3.588,1.052h-3.773a5.04,5.04,0,0,1-2.969-.8,2.525,2.525,0,0,1-1.144-2.227V757a2.7,2.7,0,0,1,.5-1.639,3.586,3.586,0,0,1,1.392-1.113,2.4,2.4,0,0,1-.711-3.65,2.778,2.778,0,0,1,1.516-.9,3.516,3.516,0,0,1-1.516-1.485,4.312,4.312,0,0,1-.495-2.1,3.639,3.639,0,0,1,1.3-3.093,6.277,6.277,0,0,1,3.928-1.021h6.835Zm-5.938,4.237a1.709,1.709,0,0,0,1.392-.464,1.738,1.738,0,0,0,.4-1.268,1.479,1.479,0,0,0-1.7-1.794h-1.3a1.886,1.886,0,0,0-1.361.4,1.806,1.806,0,0,0-.433,1.33,1.934,1.934,0,0,0,.4,1.361,1.744,1.744,0,0,0,1.268.433Zm-1.794,6.773a2,2,0,0,0-1.268.371,1.256,1.256,0,0,0-.464,1.052v.247a1.221,1.221,0,0,0,.433,1.021,2.161,2.161,0,0,0,1.361.371h2.382a2.765,2.765,0,0,0,1.423-.34,1.181,1.181,0,0,0,.495-1.021v-.371a1.139,1.139,0,0,0-.464-.99,2.054,2.054,0,0,0-1.361-.34Z" transform="translate(-2496.327 -719.105)"/><path class="b" d="M3018.618,754.712a3.523,3.523,0,0,1-2.66-.99,4.023,4.023,0,0,1-.959-2.815V742h3.464v7.887a1.8,1.8,0,0,0,.464,1.392,2.16,2.16,0,0,0,1.361.371,4.22,4.22,0,0,0,1.361-.247,4.292,4.292,0,0,0,1.237-.649V742h3.5v12.588h-2.908l-.587-1.3A7.722,7.722,0,0,1,3018.618,754.712Z" transform="translate(-2921.749 -719.105)"/><path class="b" d="M3425.216,749.866a3.236,3.236,0,0,1-2.32-.835,3.172,3.172,0,0,1-.9-2.351v-1.113a3.024,3.024,0,0,1,1.052-2.382,4.729,4.729,0,0,1,3.093-.9h3.216v-.866a1.81,1.81,0,0,0-.216-.99,1.269,1.269,0,0,0-.773-.557,8.07,8.07,0,0,0-1.732-.155h-3.773V737.68a17.436,17.436,0,0,1,5.042-.68,6.2,6.2,0,0,1,3.711.928,3.863,3.863,0,0,1,1.207,3.248v8.567H3430.1l-.557-1.33a4.912,4.912,0,0,1-.928.588,8.045,8.045,0,0,1-1.547.619A7.646,7.646,0,0,1,3425.216,749.866Zm1.794-2.412a4.1,4.1,0,0,0,1.361-.247,7.716,7.716,0,0,0,.99-.34v-2.938l-2.1.124c-1.175.093-1.763.619-1.763,1.546v.526C3425.495,747.021,3425.99,747.454,3427.01,747.454Z" transform="translate(-3316.161 -714.259)"/><path class="b" d="M3829,737.155h2.659l.8,1.918a5.681,5.681,0,0,1,1.609-1.516,3.429,3.429,0,0,1,1.948-.557,3.29,3.29,0,0,1,1.021.124v3.557c-.8-.093-1.3-.124-1.454-.124a4.132,4.132,0,0,0-1.732.309,4.862,4.862,0,0,0-1.392,1.052v7.825H3829Z" transform="translate(-3710.573 -714.259)"/><path class="b" d="M4114.484,589a3.953,3.953,0,0,1-3.371-1.454,8.153,8.153,0,0,1-1.114-4.825,12.94,12.94,0,0,1,.433-3.835,3.666,3.666,0,0,1,1.454-2.1,4.989,4.989,0,0,1,2.814-.68,9.335,9.335,0,0,1,3.217.588V571h3.495v17.877h-2.938l-.557-1.206a6.486,6.486,0,0,1-1.578.959A4.961,4.961,0,0,1,4114.484,589Zm1.207-2.784a3.806,3.806,0,0,0,2.227-.711V579.2c-.4-.155-.773-.278-1.083-.371a3.479,3.479,0,0,0-.99-.124,2.629,2.629,0,0,0-1.423.309,1.872,1.872,0,0,0-.742,1.144,9.59,9.59,0,0,0-.216,2.382,8.515,8.515,0,0,0,.216,2.258,1.853,1.853,0,0,0,.711,1.114A2.248,2.248,0,0,0,4115.69,586.217Z" transform="translate(-3982.881 -553.394)"/>

</g></svg>