<svg xmlns="http://www.w3.org/2000/svg" xmlns:xlink="http://www.w3.org/1999/xlink" width="48.289" height="51.672" viewBox="0 0 48.289 51.672"><defs><style>.a{fill-rule:evenodd;fill:url(#a);}</style><linearGradient id="a" x1="0.5" x2="0.5" y2="1" gradientUnits="objectBoundingBox"><stop offset="0" stop-color="#d10050"/><stop offset="1" stop-color="#2c0090"/></linearGradient></defs><g transform="translate(-268 -260.778)"><path class="a" d="M40.713,7.771s-3.656,3.942-3.656,5.953a3.656,3.656,0,0,0,7.311,0C44.368,11.712,40.713,7.771,40.713,7.771Zm3.329,19.483H41.213c-3.656,0-5.524-1.767-7.587-3.829-2.175-2.185-4.656-4.656-9.486-4.656s-7.3,2.471-9.486,4.656c-2.052,2.063-3.921,3.829-7.577,3.829H4.248A4.251,4.251,0,0,0,0,31.5,12.829,12.829,0,0,0,12.284,44.164a15.138,15.138,0,0,0,23.7.02A12.812,12.812,0,0,0,48.289,31.5a4.258,4.258,0,0,0-4.248-4.248ZM2.829,31.5a1.423,1.423,0,0,1,1.419-1.419H5.892a37.27,37.27,0,0,0,4.115,10.865A9.984,9.984,0,0,1,2.829,31.5ZM19.9,27.254h8.486v2.829H19.9Zm8.486,14.153H19.9V38.578h8.486Zm5.657-5.657h-19.8V32.911h19.8Zm4.227,5.2A37.666,37.666,0,0,0,42.4,30.083h1.644A1.421,1.421,0,0,1,45.451,31.5,9.971,9.971,0,0,1,38.272,40.947ZM32.186,11.906h-7.1V8.874h3.3l2.083-5.851h6.852a2.018,2.018,0,0,1,2.012,2.022h3.033A5.055,5.055,0,0,0,37.322,0H19.146V8.874h2.92v3.033h-7.1v4.922H32.186Zm2.777,7.944H31.931a28.972,28.972,0,0,1,2.7,2.481,17.951,17.951,0,0,0,3.319,2.8,1.116,1.116,0,0,0,.153.082V23.455C38.1,21.28,37.118,19.851,34.964,19.851Zm-18.605,0H13.213c-2.492,0-4.156.357-4.156,3.6v2.287a8.655,8.655,0,0,0,1.276-.613,17.624,17.624,0,0,0,3.319-2.8A29.129,29.129,0,0,1,16.359,19.851ZM9.057,45V48.31c0,3.931,3.227,3.329,3.227,3.329H35.362s2.737-.112,2.737-2.726V45.236c-.347.041-.694.082-1.052.1a18.291,18.291,0,0,1-5.32,4.309,16.168,16.168,0,0,1-7.587,1.807,16.122,16.122,0,0,1-7.6-1.818,18.221,18.221,0,0,1-5.32-4.33A14.934,14.934,0,0,1,9.057,45Z" transform="translate(268 260.778)"/></g></svg>