<svg xmlns="http://www.w3.org/2000/svg" xmlns:xlink="http://www.w3.org/1999/xlink" width="29.259" height="59.293" viewBox="0 0 29.259 59.293"><defs><style>.a{fill:url(#a);}</style><linearGradient id="a" x1="0.5" x2="0.5" y2="1" gradientUnits="objectBoundingBox"><stop offset="0" stop-color="#d10050"/><stop offset="1" stop-color="#2c0090"/></linearGradient></defs><g transform="translate(-15.032 0.001)"><g transform="translate(15.032 0)"><path class="a" d="M-5418.5-2412.77a59.266,59.266,0,0,1-5.062-16.891,3.9,3.9,0,0,1-1.071-2.128q-.909-6.148-1.822-12.3c-.707,1.135-1.382,2.292-2.037,3.465-2.1,3.749-7.849.392-5.751-3.36a64.85,64.85,0,0,1,7.291-10.656,4.735,4.735,0,0,1,3.133-2.524,4.947,4.947,0,0,1,1.833-.115,3.336,3.336,0,0,1,1.164.25,5.671,5.671,0,0,1,1.651.86,68.757,68.757,0,0,1,12.659,9.089c3.218,2.858-1.509,7.552-4.712,4.708a65.865,65.865,0,0,0-5.271-4.229q.9,6.074,1.8,12.147a5.58,5.58,0,0,1-2.032,5.564,49.376,49.376,0,0,0,3.973,12.757,3.581,3.581,0,0,1-3.216,5.07A2.749,2.749,0,0,1-5418.5-2412.77Zm-14.41-1.463a3.4,3.4,0,0,1-.705-4.655c2.162-3.689,8.838-9.762,8.839-9.763a29.282,29.282,0,0,0,1.869,8.033,21.441,21.441,0,0,0-5.347,5.681,2.943,2.943,0,0,1-2.606,1.336A3.5,3.5,0,0,1-5432.91-2414.232Zm4.624-50.32a5.8,5.8,0,0,1,5.8-5.8,5.8,5.8,0,0,1,5.8,5.8,5.8,5.8,0,0,1-5.8,5.8A5.8,5.8,0,0,1-5428.286-2464.552Z" transform="translate(5434.694 2470.354)"/></g></g></svg>