<?xml version="1.0" encoding="UTF-8"?>
<!DOCTYPE svg PUBLIC "-//W3C//DTD SVG 1.1//EN" "http://www.w3.org/Graphics/SVG/1.1/DTD/svg11.dtd">
<!-- Creator: CorelDRAW X8 -->
<svg xmlns="http://www.w3.org/2000/svg" xml:space="preserve" width="0.944441in" height="0.708331in" version="1.1" style="shape-rendering:geometricPrecision; text-rendering:geometricPrecision; image-rendering:optimizeQuality; fill-rule:evenodd; clip-rule:evenodd"
viewBox="0 0 463 347"
 xmlns:xlink="http://www.w3.org/1999/xlink">
 <defs>
  <style type="text/css">
   <![CDATA[
    .fil0 {fill:url(#id0)}
    .fil1 {fill:url(#id1)}
    .fil2 {fill:url(#id2)}
   ]]>
  </style>
  <linearGradient id="id0" gradientUnits="userSpaceOnUse" x1="231.542" y1="0" x2="231.542" y2="347.313">
   <stop offset="0" style="stop-opacity:1; stop-color:#D10050"/>
   <stop offset="1" style="stop-opacity:1; stop-color:#2C0090"/>
  </linearGradient>
  <linearGradient id="id1" gradientUnits="userSpaceOnUse" xlink:href="#id0" x1="320.073" y1="136.202" x2="320.073" y2="156.632">
  </linearGradient>
  <linearGradient id="id2" gradientUnits="userSpaceOnUse" xlink:href="#id0" x1="320.073" y1="326.883" x2="320.073" y2="347.313">
  </linearGradient>
 </defs>
 <g id="Layer_x0020_1">
  <metadata id="CorelCorpID_0Corel-Layer"/>
  <g id="_2508894605840">
   <path class="fil0" d="M232 347c-7,0 -15,-1 -21,-4 -7,-3 -13,-7 -18,-13 -5,-5 -9,-11 -12,-18 -2,-7 -4,-15 -4,-23 0,-7 2,-15 4,-22 3,-7 7,-13 12,-19 5,-5 11,-9 18,-12 6,-3 14,-4 21,-4l176 0c8,0 15,1 21,4 7,3 13,7 18,12 5,6 9,12 12,19 3,7 4,15 4,22 0,8 -1,16 -4,23 -3,7 -7,13 -12,18 -5,6 -11,10 -18,13 -6,3 -13,4 -21,4l-176 0zm-167 -347l0 0c-17,0 -31,14 -31,31 0,17 14,30 31,30 17,0 30,-13 30,-30 0,-17 -13,-31 -30,-31zm328 289c0,6 5,10 10,10 5,0 9,-4 9,-10 0,-5 -4,-9 -9,-9 -5,0 -10,4 -10,9zm-55 0c0,6 5,10 10,10 5,0 9,-4 9,-10 0,-5 -4,-9 -9,-9 -5,0 -10,4 -10,9zm-55 0c0,6 5,10 10,10 5,0 9,-4 9,-10 0,-5 -4,-9 -9,-9 -5,0 -10,4 -10,9zm-55 0c0,6 5,10 10,10 5,0 9,-4 9,-10 0,-5 -4,-9 -9,-9 -5,0 -10,4 -10,9zm-219 58c-5,0 -9,-4 -9,-9l0 -55c0,-5 4,-9 9,-9l19 0 0 -46c0,-21 16,-37 37,-37 20,0 37,16 37,37l0 46 18 0c5,0 9,4 9,9l0 55c0,5 -4,9 -9,9l-111 0zm37 -119l0 46 37 0 0 -46c0,-11 -8,-19 -18,-19 -10,0 -19,8 -19,19zm186 -78c-7,0 -15,-2 -21,-5 -7,-3 -13,-7 -18,-12 -5,-5 -9,-12 -12,-19 -2,-7 -4,-14 -4,-22 0,-8 2,-15 4,-23 3,-6 7,-13 12,-18 5,-5 11,-9 18,-12 6,-3 14,-5 21,-5l176 0c8,0 15,2 21,5 7,3 13,7 18,12 5,5 9,12 12,18 3,8 4,15 4,23 0,8 -1,15 -4,22 -3,7 -7,14 -12,19 -5,5 -11,9 -18,12 -6,3 -13,5 -21,5l-176 0zm-9 -58c0,5 4,10 9,10l176 0c5,0 9,-5 9,-10 0,-5 -4,-10 -9,-10l-176 0c-5,0 -9,5 -9,10zm-214 52l0 -9c0,-30 25,-55 56,-55 30,0 55,25 55,55l0 9 -111 0z"/>
   <path class="fil1" d="M320 136c1,0 2,0 3,1 1,0 1,1 2,2 1,1 1,2 1,4 1,1 1,2 1,3 0,2 0,3 -1,4 0,2 0,3 -1,4 -1,1 -1,1 -2,2 -1,0 -2,1 -3,1 -1,0 -2,-1 -3,-1 0,-1 -1,-1 -2,-2 0,-1 -1,-2 -1,-4 -1,-1 -1,-2 -1,-4 0,-1 0,-2 1,-3 0,-2 1,-3 1,-4 1,-1 2,-2 2,-2 1,-1 2,-1 3,-1z"/>
   <path class="fil2" d="M320 327c1,0 2,0 3,1 1,0 1,1 2,2 1,1 1,2 1,3 1,1 1,3 1,4 0,1 0,3 -1,4 0,1 0,2 -1,3 -1,1 -1,2 -2,3 -1,0 -2,0 -3,0 -1,0 -2,0 -3,0 0,-1 -1,-2 -2,-3 0,-1 -1,-2 -1,-3 -1,-1 -1,-3 -1,-4 0,-1 0,-3 1,-4 0,-1 1,-2 1,-3 1,-1 2,-2 2,-2 1,-1 2,-1 3,-1z"/>
  </g>
 </g>
</svg>
