<svg xmlns="http://www.w3.org/2000/svg" xmlns:xlink="http://www.w3.org/1999/xlink" width="56.35" height="56.352" viewBox="0 0 56.35 56.352"><defs><style>.a{fill:url(#a);}</style><linearGradient id="a" x1="0.5" x2="0.5" y2="1" gradientUnits="objectBoundingBox"><stop offset="0" stop-color="#d10050"/><stop offset="1" stop-color="#2c0090"/></linearGradient></defs><g transform="translate(-0.001 0)"><path class="a" d="M-5393.3-2808.427a13.552,13.552,0,0,1-.215-4.4,13.648,13.648,0,0,1,12.678-12.075c.291-.018.583-.031.88-.031a13.652,13.652,0,0,1,13.647,13.647,13.647,13.647,0,0,1-12.208,13.572,13.732,13.732,0,0,1-1.451.077A13.649,13.649,0,0,1-5393.3-2808.427Zm4.319-2.862a9.025,9.025,0,0,0,9.024,9.025,9.026,9.026,0,0,0,9.025-9.025,9.025,9.025,0,0,0-9.025-9.024A9.025,9.025,0,0,0-5388.979-2811.289Zm-30.156,2.862a3.521,3.521,0,0,1-3.522-3.522v-33.457a3.521,3.521,0,0,1,3.522-3.523h2.861v3.742a3.747,3.747,0,0,0,3.742,3.743h1.32a3.747,3.747,0,0,0,3.742-3.743v-3.742h15.41v3.742a3.746,3.746,0,0,0,3.741,3.743H-5387a3.746,3.746,0,0,0,3.741-3.743v-3.742h2.861a3.523,3.523,0,0,1,3.522,3.523v17.237a16.7,16.7,0,0,0-3.081-.29c-.3,0-.589.01-.88.024v-8.168H-5418.7v21.131a2.642,2.642,0,0,0,2.642,2.642h18.421c-.024.365-.04.731-.04,1.1a16.7,16.7,0,0,0,.328,3.3Zm33.017-1.1v-3.082h4.842v-4.842h3.082v7.925Zm-17.142-9.906a3.5,3.5,0,0,1,3.495-3.495,3.5,3.5,0,0,1,3.5,3.495,3.5,3.5,0,0,1-3.5,3.495A3.5,3.5,0,0,1-5403.26-2819.432Zm-10.483,0a3.5,3.5,0,0,1,3.495-3.495,3.5,3.5,0,0,1,3.495,3.495,3.5,3.5,0,0,1-3.495,3.495A3.5,3.5,0,0,1-5413.743-2819.432Zm20.966-10.566a3.5,3.5,0,0,1,3.5-3.495,3.5,3.5,0,0,1,3.495,3.495,3.5,3.5,0,0,1-3.495,3.495A3.5,3.5,0,0,1-5392.777-2830Zm-10.483,0a3.5,3.5,0,0,1,3.495-3.495,3.5,3.5,0,0,1,3.5,3.495,3.5,3.5,0,0,1-3.5,3.495A3.5,3.5,0,0,1-5403.26-2830Zm-10.483,0a3.5,3.5,0,0,1,3.495-3.495,3.5,3.5,0,0,1,3.495,3.495,3.5,3.5,0,0,1-3.495,3.495A3.5,3.5,0,0,1-5413.743-2830Zm25.423-13.647a1.541,1.541,0,0,1-1.541-1.541v-7.264a1.542,1.542,0,0,1,1.542-1.541h1.32a1.541,1.541,0,0,1,1.539,1.541v7.264a1.542,1.542,0,0,1-1.541,1.541Zm-24.212,0a1.541,1.541,0,0,1-1.541-1.541v-7.264a1.542,1.542,0,0,1,1.541-1.541h1.32a1.542,1.542,0,0,1,1.541,1.541v7.264a1.542,1.542,0,0,1-1.541,1.541Z" transform="translate(5422.658 2853.991)"/></g></svg>