<svg xmlns="http://www.w3.org/2000/svg" xmlns:xlink="http://www.w3.org/1999/xlink" width="52.434" height="63.628" viewBox="0 0 52.434 63.628"><defs><style>.a{fill-rule:evenodd;fill:url(#a);}</style><linearGradient id="a" x1="0.5" x2="0.5" y2="1" gradientUnits="objectBoundingBox"><stop offset="0" stop-color="#d10050"/><stop offset="1" stop-color="#2c0090"/></linearGradient></defs><g transform="translate(-0.151 0.026)"><path class="a" d="M32.053,3.383a2.251,2.251,0,1,1-2.258,2.258A2.248,2.248,0,0,1,32.053,3.383ZM12.779,30.96l-.83-.248-1.122-.233L6.282,30.6A13.317,13.317,0,0,0,7.841,32.97c.51.758,1.093,1.53,1.573,2.141l.466.408a20.449,20.449,0,0,0,3.627,5.142l.568-5.3.816.524,3.977,3.059c1.369.991,2.739,2.564,4.327.787.073-1.821-.7-1.981-1.806-2.8l-2.608-1.967c-.889-.67-4.4-3.394-5.288-3.54C13.26,31.018,13.9,31.237,12.779,30.96Zm25.887,1.69c-.539-.51-.306-.291-1.224-.379-.466-.044-1.049-.087-1.53-.1a10.345,10.345,0,0,0-2.812.306A6.418,6.418,0,0,0,28.323,36.9a43.765,43.765,0,0,0-.452,8.333c.2.481,2.666,2.739,2.884-1.777.073-1.369,0-5.04.583-6,.452,1.049.146,19.361.131,22.231,0,1.894-.058,3.7,1.908,3.788,2.083.087,2.214-1.5,2.2-3.278,0-1.049-.146-9.7.1-10.635l.233-.408c.539.437.379-.175.437,1.122.015.452-.029,1.078-.029,1.544V60.2c-.029,4.735,3.423,3.423,3.977,2.1.291-.7.044-21.56.16-24.926.291.35.262.015.408.816.044.2.044.7.073.947.189,3-.277,6.789,1.617,7.007,1.209.131,1.3-.6,1.3-.612.51-.918.16-7.43-.277-8.7C42.935,35,41.055,32.519,38.666,32.65Zm-33.4-10.1.029,1.034,7.357.131.889-1.938Zm-.2,1.471c-1.734,5.711,6.25,7.3,7.546,2.477.32-1.209-.117-.758.656-1.486-.67-.685-.277-.874-1.471-.961-.641-.044-1.559.015-2.258.015C8.045,24.04,6.544,23.967,5.058,24.026Zm27.2,4.21c.86,4.72,8.289,3.525,7.415-1.486C38.87,22.234,31.324,23.079,32.256,28.236ZM19.524,40.254c-.189,4.312-.015,8.988-.015,13.344,0,10.227-1.005,10.46,3.045,9.775.058-.146.117-.029.219-.641a6.46,6.46,0,0,0,.029-.758c.073-3.962.146-19.565-.131-20.949C20.66,41.667,20.762,40.6,19.524,40.254ZM.193,44.29c3.715,3.5,3.132-4.079,3.321-6.934.087-1.442.233-1.049.6-1.4-.073,8-.044,15.981-.073,23.979,0,1.952.2,3.744,2.433,3.525,2.01-.189,1.938-2.112,1.938-4.035-.015-2.025,0-4.05,0-6.075,0-2.826-.452-4.691.612-5.011.83,2.651-.772,12.834.728,14.437.67.7,3.773,1.923,3.773-2.316V45.222c0-1.617.2-1.981-.583-3.132-.539-.772-1.093-1.515-1.6-2.214-1.078-1.5-2.1-2.841-3.2-4.4A37.209,37.209,0,0,1,5.087,30.96,6.872,6.872,0,0,0,.6,35.8,54.587,54.587,0,0,0,.193,44.29ZM39.963,3.383a2.251,2.251,0,1,1-2.243,2.258A2.251,2.251,0,0,1,39.963,3.383ZM22.919,11.235c.961-.5,23.542-.408,26.135-.16.262,2.273.1,50.638.1,50.638,0,1.821-.408,1.938,3.059,1.646.539-1.209.248-21.779.233-24.722-.073-8.7.568-35.458-.422-38.168C49.49-.346,26.444.091,21.957.091,20.223.091,19.5.63,19.5,2.378V26.721c0,8.391-.743,7.517,1.428,9.149a11.91,11.91,0,0,0,1.836,1.267C22.773,30.96,22.6,14.95,22.919,11.235Z" transform="translate(0 0)"/></g></svg>