<svg xmlns="http://www.w3.org/2000/svg" width="50" height="50" viewBox="0 0 50 50">
  <g id="Group_19976" data-name="Group 19976" transform="translate(-1131 -4934)">
    <path id="Oval-1" d="M25,50A25,25,0,1,0,0,25,25,25,0,0,0,25,50Zm0-3A22,22,0,1,0,3,25,22,22,0,0,0,25,47Z" transform="translate(1131 4934)" fill="#fff" fill-rule="evenodd"/>
    <g id="youtube-logotype" transform="translate(1136.431 4943.667)">
      <g id="Group_19975" data-name="Group 19975" transform="translate(7.067)">
        <path id="Path_1262" data-name="Path 1262" d="M32.237,40.2a3.235,3.235,0,0,0-2.769-2.517,86.054,86.054,0,0,0-9.59-.355,86.078,86.078,0,0,0-9.592.355A3.235,3.235,0,0,0,7.519,40.2a27.425,27.425,0,0,0-.452,6.055,27.419,27.419,0,0,0,.446,6.054,3.235,3.235,0,0,0,2.768,2.517,86.06,86.06,0,0,0,9.591.355,86,86,0,0,0,9.592-.355,3.236,3.236,0,0,0,2.768-2.517,27.44,27.44,0,0,0,.448-6.054A27.46,27.46,0,0,0,32.237,40.2ZM14.373,41.7H12.519v9.851H10.8V41.7H8.977V40.087h5.4Zm4.677,9.851H17.5V50.62a2.481,2.481,0,0,1-1.769,1.049.949.949,0,0,1-1-.635,4.36,4.36,0,0,1-.137-1.27V43.009h1.548V49.3a4.819,4.819,0,0,0,.014.6c.037.24.155.362.362.362.311,0,.635-.239.978-.725V43.009H19.05v8.542Zm5.88-2.564a6.824,6.824,0,0,1-.157,1.721,1.225,1.225,0,0,1-1.236.96,2.109,2.109,0,0,1-1.6-.945v.828H20.39V40.087h1.548v3.744a2.1,2.1,0,0,1,1.6-.927,1.224,1.224,0,0,1,1.236.964,6.56,6.56,0,0,1,.157,1.717Zm5.842-1.425h-3.1v1.514c0,.791.259,1.186.791,1.186a.665.665,0,0,0,.691-.621,9.739,9.739,0,0,0,.035-1.049h1.579v.226c0,.5-.019.843-.033,1a2.206,2.206,0,0,1-.361.927,2.142,2.142,0,0,1-1.872.926,2.216,2.216,0,0,1-1.874-.875,3.309,3.309,0,0,1-.5-2.009V45.794a3.324,3.324,0,0,1,.479-2.013,2.2,2.2,0,0,1,1.854-.876,2.15,2.15,0,0,1,1.826.876,3.357,3.357,0,0,1,.479,2.013v1.768Z" transform="translate(-7.067 -24.835)" fill="#fff"/>
        <path id="Path_1263" data-name="Path 1263" d="M69.434,58.163q-.776,0-.777,1.185v.79H70.2v-.79C70.2,58.558,69.946,58.163,69.434,58.163Z" transform="translate(-48.047 -38.7)" fill="#fff"/>
        <path id="Path_1264" data-name="Path 1264" d="M52.277,58.163a1.109,1.109,0,0,0-.772.376v5.206a1.1,1.1,0,0,0,.772.381c.446,0,.673-.381.673-1.153V59.328C52.95,58.558,52.723,58.163,52.277,58.163Z" transform="translate(-36.635 -38.7)" fill="#fff"/>
        <path id="Path_1265" data-name="Path 1265" d="M54.116,17.571a2.513,2.513,0,0,0,1.787-1.06v.942h1.564V8.82H55.9v6.6c-.347.49-.675.732-.988.732-.209,0-.333-.124-.367-.366a3.629,3.629,0,0,1-.019-.608V8.82H52.97v6.826a4.361,4.361,0,0,0,.139,1.284A.961.961,0,0,0,54.116,17.571Z" transform="translate(-37.61 -5.869)" fill="#fff"/>
        <path id="Path_1266" data-name="Path 1266" d="M19.53,6.893v4.692h1.735V6.893L23.351,0H21.6L20.414,4.549,19.182,0H17.357c.366,1.074.746,2.153,1.112,3.228A28.537,28.537,0,0,1,19.53,6.893Z" transform="translate(-13.914)" fill="#fff"/>
        <path id="Path_1267" data-name="Path 1267" d="M37.624,17.364a2.132,2.132,0,0,0,1.825-.884,3.377,3.377,0,0,0,.486-2.03V11.427a3.383,3.383,0,0,0-.486-2.034,2.319,2.319,0,0,0-3.646,0,3.355,3.355,0,0,0-.49,2.034V14.45a3.346,3.346,0,0,0,.49,2.03A2.132,2.132,0,0,0,37.624,17.364Zm-.747-6.25c0-.8.242-1.2.747-1.2s.746.4.746,1.2v3.631c0,.8-.242,1.2-.746,1.2s-.747-.4-.747-1.2Z" transform="translate(-25.861 -5.661)" fill="#fff"/>
      </g>
    </g>
  </g>
</svg>
